<?xml version="1.0" encoding="UTF-8"?>
<svg width="48" height="48" version="1.1" viewBox="0 0 48 48" xmlns="http://www.w3.org/2000/svg">
<path d="m42.579 47.807c-3.5384-0.55958-1.2063-5.3104-4.5921-5.4368-5.5738-0.65521-10.186-5.486-11.244-10.827-0.06426-2.9488-3.4858-2.4124-5.4518-1.9364-1.3168 2.1767-1.7228 4.3938-3.3901 6.4062-2.1209 3.063-5.3669 5.8439-8.9899 6.8083-2.6626 0.19125-1.9365 5.2897-5.3375 5.0998-2.6189-0.053125-4.9496-4.2399-2.6085-6.0038 1.6017-1.5672 3.8972-0.85531 4.4492-3.908 1.7251-4.8202 5.6259-9.2165 10.472-10.574 2.7801-0.77917 4.1171-3.3786 3.1678-5.024-6.7892-0.57906-12.495-5.1326-16.478-10.386-1.891-2.2314-2.9073-5.156-0.039507-7.092 1.7814-1.8835 3.6979-3.7666 6.0264-4.9334 5.6569 3.5613 10.497 8.7723 12.563 15.231 0.58258 2.0813 1.2252 6.2105 4.1838 3.9838 0.84108-2.6318 1.1136-5.1914 2.5141-7.6411 2.7734-4.888 6.8434-9.3256 12.096-11.546 3.0492 1.4662 5.5092 4.0379 7.4141 6.7897 2.0332 2.4487-1.9263 4.5604-3.1698 6.4887-3.6903 3.8305-7.8051 6.914-12.763 8.8186-2.1761 0.14167-2.9737 1.0412-2.0564 3.0965 0.01187 2.7662 3.7905 1.1599 5.3823 2.8645 2.9121 2.0579 5.684 4.6467 7.1971 7.888 0.62151 2.0616 0.19578 5.5121 3.2432 4.9247 3.6966 1.0536 2.5658 7.2671-1.1427 7.0987l-1.4468-0.18948zm2.5329-1.5566c1.6574-1.1776 1.1866-3.5516-0.6684-3.8599-3.7774 0.4675-3.088-3.8179-4.445-6.1072-1.6714-2.8208-3.7792-5.242-6.5507-7.0146-2.0075-1.4627-4.7408 0.30104-5.5285-2.8808-0.68423 1.7802-2.2735 2.2451-1.0981 2.1454 2.25 1.0536 1.0341 4.5613 2.9116 6.3745 2.0909 3.5475 5.7772 6.035 9.9544 6.1026 3.0652 0.5649 0.7066 5.5939 4.5354 5.3706zm-36.19-4.8969c4.7673-2.6146 8.8887-6.3428 10.506-11.509 0.71705-3.4053 5.2888-0.87479 7.0163-3.2886 1.4419-1.9536 0.70321-6.1446 4.1533-5.914 3.5981-1.0023 5.7258-3.329 8.704-5.5215 2.6692-2.2596 4.3611-3.3635 6.2242-6.344-3.1935-2.1231-4.291-2.4946-6.2439-5.8197-5.706 2.8491-8.8085 6.3638-10.96 12.416-1.0393 2.1475-1.0438 6.8163-4.6298 6.3332-4.3248-0.03542-1.7564 3.1845-4.8259 6.1032-5.4178 2.3301-8.0034 3.768-10.639 7.6661-1.5467 2.2876-1.5207 6.4032-5.0573 6.7134-3.0442 1.7159-1.3894 4.091 0.67999 3.9714l0.65586-0.48875c2.4216-1.6292 0.27683-4.3995 4.414-4.3166zm11.354-22.827c-1.062-5.1331-2.7452-7.8304-6.4564-11.546-1.8837-1.6115-2.618-3.4016-4.8799-4.3499-2.0219 3.0079-2.9372 4.0455-6.127 5.8427 1.9628 4.9431 4.7195 7.2062 9.1871 9.9239 2.5297 1.5389 4.0312 2.0411 6.9643 2.278 1.2777-0.79865 1.516-1.314 1.3105-2.1491" stroke-width=".0070626"/>
</svg>
