<?xml version="1.0" standalone="no"?>
<!DOCTYPE svg PUBLIC "-//W3C//DTD SVG 20010904//EN"
 "http://www.w3.org/TR/2001/REC-SVG-20010904/DTD/svg10.dtd">
<svg version="1.0" xmlns="http://www.w3.org/2000/svg"
 width="450.000000pt" height="450.000000pt" viewBox="0 0 450.000000 450.000000"
 preserveAspectRatio="xMidYMid meet">
<metadata>
Created by potrace 1.11, written by Peter Selinger 2001-2013
</metadata>
<g transform="translate(0.000000,450.000000) scale(0.100000,-0.100000)"
fill="#000000" stroke="none">
<path d="M0 2250 l0 -2250 2250 0 2250 0 0 2250 0 2250 -2250 0 -2250 0 0
-2250z m3775 1714 c306 -11 328 -12 344 -29 15 -15 13 -16 -19 -12 -19 3 -47
8 -62 12 -18 5 -28 3 -28 -4 0 -14 -55 -14 -82 0 -37 20 -602 30 -633 11 -11
-7 -7 -7 -100 -18 -72 -8 -78 -8 -130 -4 -69 5 -105 0 -105 -15 0 -12 -17 -15
-95 -15 -68 0 -104 -5 -130 -17 -42 -20 -43 -25 -10 -43 20 -11 28 -10 50 4
14 9 25 22 25 29 0 9 17 12 58 10 31 -1 68 -2 81 -2 13 -1 21 -4 18 -7 -12
-13 13 -43 30 -37 11 5 14 3 9 -6 -6 -9 -2 -12 10 -9 11 1 30 -6 44 -16 l25
-18 -27 6 c-15 3 -30 2 -33 -4 -4 -6 8 -10 29 -10 37 0 49 14 35 42 -18 35 72
89 128 76 13 -4 11 -7 -12 -12 -53 -13 -55 -15 -55 -39 0 -38 10 -38 43 0 27
31 32 33 43 19 12 -18 44 -22 44 -6 0 6 -4 10 -10 10 -5 0 -10 9 -10 20 0 37
24 19 53 -40 22 -44 57 -53 209 -52 76 0 138 -4 138 -9 0 -5 -5 -9 -11 -9 -5
0 -7 -6 -3 -12 5 -9 2 -9 -9 1 -14 11 -17 11 -17 0 0 -8 -5 -6 -13 5 -10 14
-18 16 -33 8 -28 -14 -109 -32 -148 -32 -21 0 -36 -6 -40 -15 -4 -12 -28 -15
-123 -15 -72 0 -113 -4 -107 -9 22 -22 272 -12 312 13 7 4 12 1 12 -9 0 -14
11 -16 88 -11 48 2 96 5 107 6 11 0 23 6 26 12 6 9 11 9 22 0 15 -13 88 -9
111 5 6 4 25 8 41 10 118 8 182 16 198 25 11 5 32 11 48 13 34 5 119 60 119
79 0 19 -38 55 -66 62 -19 5 -22 9 -12 15 7 5 21 9 30 9 22 0 68 -45 69 -68 0
-10 3 -12 6 -4 7 19 31 14 38 -8 3 -11 11 -20 16 -20 6 0 9 -15 7 -32 -2 -18
-7 -32 -11 -30 -4 2 -16 -7 -26 -19 -10 -13 -36 -28 -57 -34 -34 -9 -39 -15
-40 -40 -1 -17 -2 -34 -4 -40 -1 -5 -2 -14 -1 -19 5 -26 3 -165 -2 -173 -4 -6
4 -22 18 -37 47 -50 48 -78 7 -111 -11 -9 -14 -73 -15 -294 l-2 -283 35 -14
c56 -22 65 -30 70 -60 4 -21 12 -30 29 -32 22 -3 23 -6 16 -50 -4 -26 -7 -54
-6 -62 8 -83 -8 -150 -36 -150 -21 -1 -53 -23 -53 -37 0 -6 -19 -13 -41 -17
-65 -10 -81 -27 -84 -85 -2 -28 1 -54 7 -57 5 -3 8 -22 6 -43 -3 -32 0 -36 22
-38 14 0 31 -1 38 -2 6 -1 12 -12 12 -25 0 -33 24 -50 60 -42 l30 6 0 -49 c0
-46 -2 -50 -27 -55 -16 -3 -37 -5 -48 -3 -16 2 -21 -5 -23 -30 -3 -26 -8 -32
-30 -35 -49 -6 -50 -18 -52 -497 -1 -245 -3 -464 -5 -486 -6 -89 -7 -211 -1
-225 4 -9 16 -16 27 -17 12 -1 24 -5 27 -8 9 -9 -20 -25 -46 -25 -20 0 -21 -3
-12 -21 16 -28 4 -72 -28 -106 -21 -21 -37 -28 -70 -29 -30 -1 -42 2 -42 12 0
8 -4 14 -10 14 -5 0 -9 3 -9 8 4 25 -5 44 -32 71 -22 23 -40 31 -67 32 -20 0
-50 2 -67 4 -100 11 -195 13 -195 4 0 -6 -6 -6 -18 0 -14 7 -1017 26 -1137 21
-170 -7 -402 -7 -415 0 -10 5 -20 6 -24 2 -8 -7 -146 -9 -641 -10 -1141 -2
-1118 -2 -1140 12 -20 13 -22 23 -25 183 -5 271 -4 301 10 318 7 8 9 15 5 15
-5 0 0 9 10 20 10 11 23 19 30 18 6 -2 24 10 40 27 l30 29 5 -30 c5 -27 9 -30
50 -33 36 -2 43 0 33 10 -22 22 16 38 87 38 57 0 63 -1 47 -13 -15 -12 -16
-14 -2 -20 9 -3 20 2 27 14 7 11 21 20 30 20 11 0 18 7 18 18 0 37 37 62 92
62 41 0 49 -3 40 -12 -7 -7 -28 -11 -47 -10 -40 3 -44 -9 -15 -40 25 -27 25
-35 -1 -43 -23 -8 -20 -31 5 -27 25 4 19 -17 -7 -23 -50 -11 -77 -9 -77 5 0 6
11 10 24 10 18 0 24 5 23 19 -1 18 -2 18 -35 1 -19 -10 -40 -16 -48 -13 -8 3
-22 2 -31 -3 -23 -9 -29 -11 -48 -13 -8 0 -15 -8 -15 -16 0 -18 -42 -20 -72
-4 -16 8 -23 8 -30 -2 -8 -11 -11 -11 -15 -1 -2 7 -18 19 -33 27 -27 14 -31
14 -55 -10 -14 -14 -25 -30 -25 -34 0 -12 29 -23 41 -16 5 4 102 8 216 11 115
2 232 6 261 8 41 3 51 1 43 -8 -6 -7 -38 -14 -73 -15 -35 -1 -67 -6 -72 -12
-6 -6 -4 -9 7 -9 11 0 17 -8 17 -21 0 -11 6 -27 14 -35 13 -12 16 -12 28 3 7
10 24 23 38 30 41 20 59 19 144 -4 11 -3 16 -1 12 5 -8 14 19 23 32 10 7 -7
17 -6 31 1 22 12 126 19 136 9 4 -3 -19 -12 -50 -18 -41 -9 -55 -15 -51 -26 3
-7 -3 -18 -12 -24 -13 -8 -4 -10 36 -8 29 1 55 5 58 10 3 4 14 8 25 8 14 0 19
6 18 17 -5 37 13 80 46 108 34 28 47 65 22 61 -7 -1 -23 -12 -35 -24 -15 -15
-34 -22 -58 -22 -31 0 -36 -3 -31 -20 3 -11 2 -22 -2 -25 -17 -10 -243 -7
-254 4 -8 8 14 11 80 11 57 0 94 4 99 11 9 15 -13 28 -36 22 -14 -4 -18 0 -16
13 3 18 16 23 101 38 43 8 42 16 -2 16 -27 0 -43 5 -47 15 -3 9 -18 15 -36 15
-16 0 -30 5 -30 11 0 5 -19 19 -43 29 -23 10 -55 32 -71 49 -16 17 -32 28 -36
26 -3 -2 -12 0 -20 5 -9 5 -19 5 -27 -2 -9 -7 -13 -7 -13 0 0 6 5 14 11 17 12
8 -17 45 -36 45 -6 0 -22 18 -35 40 -14 22 -30 40 -36 40 -6 0 -27 -14 -47
-31 -41 -35 -49 -69 -18 -69 26 0 36 -17 21 -35 -17 -21 -38 -19 -45 5 -3 11
-11 20 -16 20 -15 0 -109 -101 -103 -111 3 -5 -6 -9 -20 -9 -14 0 -26 4 -26
10 0 5 28 38 62 74 35 35 80 83 101 105 20 23 40 41 44 41 3 0 11 7 18 16 10
14 6 26 -19 68 -41 68 -71 140 -98 232 -15 49 -11 135 6 163 4 5 2 21 -4 36
-6 15 -7 32 -3 38 7 12 11 31 14 85 1 18 6 35 11 38 4 3 8 14 8 25 0 10 4 19
8 19 9 0 42 69 42 87 0 5 9 18 21 29 12 10 30 36 40 57 11 20 23 37 27 37 23
0 102 95 102 123 0 8 12 17 27 20 37 7 95 29 179 68 86 40 197 61 334 62 106
1 264 -23 284 -43 5 -5 17 -10 25 -10 24 0 143 -75 191 -122 53 -51 119 -129
118 -142 0 -5 5 -12 10 -15 16 -10 69 -113 81 -158 13 -49 73 -124 113 -142
30 -13 378 -13 399 0 6 4 12 19 12 34 0 23 3 26 23 21 14 -4 24 -2 24 4 0 5 7
10 15 10 9 0 15 -9 15 -25 0 -24 2 -25 43 -20 83 11 82 11 82 -9 0 -11 5 -21
10 -23 7 -2 11 33 10 97 0 55 -3 100 -7 100 -5 0 -10 0 -13 1 -128 28 -170 40
-184 56 -9 10 -36 27 -59 38 -25 12 -42 28 -44 40 -2 11 -1 78 2 149 4 91 9
131 18 134 6 2 12 10 12 18 0 8 6 15 13 16 19 2 30 4 60 12 24 7 27 13 28 50
3 96 -2 239 -13 355 -8 94 -8 126 0 129 18 6 14 42 -3 42 -9 0 -25 8 -36 18
-14 14 -18 26 -13 50 4 18 11 32 16 32 5 0 18 8 28 18 18 16 19 31 17 167 -2
147 -2 148 -30 178 -15 16 -26 35 -24 41 2 6 0 21 -4 34 -8 20 -6 22 27 22 19
0 47 9 62 20 15 11 37 22 48 24 33 7 97 18 119 21 11 2 21 4 23 4 1 1 4 1 7 1
3 1 26 7 52 15 25 8 50 12 55 9 5 -4 37 -1 71 5 34 6 112 12 173 14 61 3 115
6 120 9 5 2 47 6 94 7 47 2 86 4 88 6 2 1 49 1 105 -2 56 -2 156 -6 222 -9z
m-379 -59 c-3 -9 0 -15 8 -15 7 0 19 7 26 15 7 8 19 15 27 15 7 0 16 -7 19
-15 8 -19 95 -22 92 -2 -2 8 7 11 26 10 42 -3 53 -18 31 -43 -19 -21 -50 -27
-60 -10 -9 14 -148 13 -163 -2 -9 -9 -12 -8 -12 5 0 9 -4 17 -10 17 -5 0 -10
9 -10 20 0 12 7 20 16 20 10 0 14 -6 10 -15z m137 8 c-7 -2 -19 -2 -25 0 -7 3
-2 5 12 5 14 0 19 -2 13 -5z m147 -10 c0 -7 5 -13 10 -13 6 0 10 7 10 15 0 8
9 15 20 15 11 0 23 -7 26 -15 4 -8 11 -15 16 -15 6 0 8 7 4 15 -8 22 50 20 62
-1 6 -11 14 -14 23 -8 18 11 31 12 45 2 5 -4 30 -10 55 -13 24 -3 60 -8 79
-11 19 -4 43 -8 52 -10 9 -1 29 -10 45 -18 28 -16 28 -16 -22 -10 -27 3 -57 8
-65 12 -26 10 -55 10 -67 0 -10 -8 -13 -6 -13 6 0 9 -8 16 -20 16 -11 0 -30 6
-41 13 -17 10 -23 10 -26 0 -3 -7 -13 -13 -24 -13 -10 0 -19 -4 -19 -9 0 -19
-42 -24 -52 -7 -5 10 -22 16 -43 16 -18 0 -45 4 -59 10 -28 10 -36 37 -11 37
8 0 15 -6 15 -14z m-365 -3 c-3 -5 -10 -10 -16 -10 -5 0 -9 5 -9 10 0 6 7 10
16 10 8 0 12 -4 9 -10z m-250 -20 c-21 -24 -32 -25 -51 -6 -12 13 -12 15 4 19
9 3 28 5 41 6 23 1 24 0 6 -19z m295 -21 c0 -18 -18 -9 -23 12 -4 16 -3 18 9
8 8 -6 14 -15 14 -20z m547 6 c3 -9 3 -19 -1 -22 -8 -9 -37 18 -30 28 8 14 24
11 31 -6z m-181 -114 c-4 -6 -11 -11 -15 -11 -11 0 -21 37 -13 45 9 9 35 -22
28 -34z m129 18 c4 -6 5 -12 2 -15 -7 -7 -37 7 -37 17 0 13 27 11 35 -2z
m-175 -7 c0 -13 -12 -22 -22 -16 -10 6 -1 24 13 24 5 0 9 -4 9 -8z m115 -2
c-3 -5 -15 -10 -26 -10 -11 0 -17 5 -14 10 3 6 15 10 26 10 11 0 17 -4 14 -10z
m-185 -42 c0 -5 -17 -8 -37 -8 -21 0 -33 4 -26 8 15 9 63 9 63 0z m-2916
-2376 c20 -32 -40 -80 -67 -53 -9 9 -6 13 11 18 13 3 21 11 18 18 -8 22 26 37
38 17z m-110 -31 c8 -12 -42 -43 -62 -39 -9 3 -16 10 -14 16 1 7 -5 12 -13 12
-8 0 -15 5 -15 10 0 12 97 13 104 1z m-129 -81 c3 -5 -1 -10 -9 -10 -9 0 -16
5 -16 10 0 6 4 10 9 10 6 0 13 -4 16 -10z m-55 -10 c0 -5 -2 -10 -4 -10 -3 0
-8 5 -11 10 -3 6 -1 10 4 10 6 0 11 -4 11 -10z m414 -11 c20 -19 20 -19 -7
-19 -15 0 -36 -5 -46 -12 -17 -10 -23 -8 -40 13 l-19 24 21 6 c40 11 70 7 91
-12z m136 -14 c0 -11 -12 -14 -45 -12 -41 2 -52 6 -41 18 3 2 23 5 45 6 29 1
41 -2 41 -12z m-162 -66 c-18 -12 -58 -11 -58 0 0 12 29 18 53 13 15 -4 16 -7
5 -13z m62 0 c0 -5 -7 -9 -15 -9 -15 0 -20 12 -9 23 8 8 24 -1 24 -14z"/>
<path d="M2930 3726 c0 -9 5 -16 10 -16 6 0 10 4 10 9 0 6 -4 13 -10 16 -5 3
-10 -1 -10 -9z"/>
<path d="M2594 3648 c3 -35 5 -75 5 -90 1 -23 6 -28 26 -28 16 0 25 6 25 15 0
9 8 18 18 21 9 3 27 11 39 17 17 7 30 7 48 -1 18 -8 39 -9 69 -2 48 11 104 6
119 -9 8 -8 4 -11 -13 -12 -88 -5 -112 -9 -124 -18 -8 -7 -35 -12 -60 -13 -25
0 -46 -2 -46 -4 0 -2 17 -21 38 -41 51 -51 146 -88 161 -64 6 9 20 9 57 1 26
-6 51 -15 54 -20 10 -16 89 -20 117 -5 14 8 30 12 34 9 26 -16 290 -23 429
-11 36 3 117 8 180 12 110 5 132 10 192 42 15 8 34 13 41 11 22 -5 87 24 87
39 0 7 11 13 25 13 16 0 25 -6 25 -15 0 -8 5 -15 11 -15 7 0 9 12 5 33 -3 17
-6 65 -7 105 -1 76 -7 84 -44 59 -22 -15 -64 -26 -134 -34 -24 -2 -56 -9 -70
-15 -14 -6 -57 -12 -96 -14 -94 -6 -110 -10 -108 -23 2 -6 -7 -15 -18 -21 -17
-9 -23 -8 -33 5 -11 15 -36 17 -227 16 -118 -1 -232 -4 -253 -6 -22 -2 -58 0
-80 6 -23 6 -61 13 -86 16 -25 3 -47 8 -50 12 -3 4 -12 6 -20 6 -8 0 -40 5
-70 13 -30 7 -75 16 -99 19 -24 3 -68 16 -98 29 -29 13 -58 24 -64 24 -6 0 -8
-23 -5 -62z m1234 -76 c3 -10 -7 -12 -39 -10 -24 2 -44 9 -47 16 -3 10 7 12
39 10 24 -2 44 -9 47 -16z m165 -21 c-21 -20 -67 -19 -80 2 -4 6 4 8 20 5 14
-3 32 -1 39 3 7 5 19 9 27 9 11 0 9 -5 -6 -19z m104 -7 c19 -18 16 -25 -9 -21
-32 4 -70 26 -64 36 7 11 58 1 73 -15z m-784 -10 c4 -1 30 -2 57 -3 59 -1 68
-21 10 -21 -24 0 -40 -5 -40 -12 0 -9 -3 -9 -12 0 -16 16 -51 15 -66 0 -10
-10 -15 -10 -21 1 -10 15 -81 8 -81 -8 0 -17 68 -23 314 -27 138 -2 252 -7
255 -9 2 -3 1 -8 -3 -12 -9 -9 -465 -15 -486 -7 -8 4 -34 7 -57 7 -24 0 -43 4
-43 9 0 4 -11 8 -24 8 -29 0 -39 12 -30 34 4 10 18 16 39 16 18 0 35 5 37 11
2 6 28 12 58 15 29 2 56 7 58 9 3 2 10 1 16 -3 6 -4 14 -7 19 -8z m-464 -15
c34 -12 37 -30 5 -35 -31 -5 -54 6 -54 27 0 22 6 23 49 8z m69 2 c11 -7 10
-10 -3 -15 -19 -7 -35 0 -35 15 0 11 20 12 38 0z m946 -19 c-2 -28 -5 -32 -19
-32 -8 0 -15 -6 -15 -14 0 -17 -16 -24 -55 -22 -26 2 -30 6 -27 27 5 35 19 47
55 51 47 5 62 2 61 -10z m-823 -2 c36 -20 22 -37 -32 -39 -61 -2 -72 4 -56 29
13 22 56 27 88 10z m479 6 c0 -11 -19 -15 -25 -6 -3 5 1 10 9 10 9 0 16 -2 16
-4z"/>
<path d="M4096 3439 c-3 -18 -14 -38 -24 -45 -23 -17 -8 -30 22 -16 27 12 40
66 21 82 -9 8 -14 2 -19 -21z"/>
<path d="M4143 3455 c0 -8 4 -15 9 -15 4 0 8 7 8 15 0 8 -4 15 -8 15 -5 0 -9
-7 -9 -15z"/>
<path d="M2602 3430 c0 -19 2 -27 5 -17 2 9 2 25 0 35 -3 9 -5 1 -5 -18z"/>
<path d="M2700 3431 c0 -12 21 -27 48 -34 31 -7 28 5 -7 26 -33 19 -41 21 -41
8z"/>
<path d="M3992 3418 c-7 -7 -12 -18 -12 -25 0 -11 6 -10 30 2 17 9 30 20 30
25 0 14 -34 12 -48 -2z"/>
<path d="M2980 3371 c0 -5 14 -11 31 -15 55 -11 66 -5 19 10 -54 16 -50 16
-50 5z"/>
<path d="M3634 3343 c12 -12 52 -14 77 -4 20 8 15 10 -30 10 -30 1 -51 -2 -47
-6z"/>
<path d="M3855 3340 c-3 -5 1 -10 9 -10 8 0 18 5 21 10 3 6 -1 10 -9 10 -8 0
-18 -4 -21 -10z"/>
<path d="M3919 3331 c-14 -10 -45 -23 -69 -29 -25 -5 -36 -11 -25 -12 11 -1
28 -3 38 -5 9 -2 17 1 17 6 0 5 6 9 13 9 8 0 24 11 37 25 28 30 22 33 -11 6z"/>
<path d="M4117 3344 c-13 -13 -7 -44 8 -44 8 0 15 7 15 15 0 8 0 18 1 22 1 10
-16 15 -24 7z"/>
<path d="M2866 3323 c-13 -13 -5 -19 29 -21 19 -2 35 2 35 8 0 5 -3 10 -7 11
-5 0 -17 2 -29 4 -12 3 -24 2 -28 -2z"/>
<path d="M3030 3301 c0 -11 12 -13 84 -15 22 -1 41 -7 44 -14 6 -18 29 -15 41
6 10 16 10 16 11 0 0 -10 7 -18 15 -18 9 0 15 -6 13 -12 -2 -7 2 -14 7 -15 6
-2 10 2 10 9 0 6 6 13 13 16 6 2 12 -3 12 -12 0 -18 15 -21 25 -6 3 6 13 10
21 10 8 0 13 -4 9 -9 -9 -16 11 -21 41 -11 25 8 112 21 229 34 143 15 174 19
170 26 -2 4 -30 3 -62 -2 -32 -5 -137 -8 -233 -6 -96 3 -192 1 -213 -2 -25 -5
-40 -3 -45 5 -9 16 -192 31 -192 16z"/>
<path d="M4090 3231 c-14 -11 -44 -24 -67 -30 -24 -7 -43 -15 -43 -19 0 -4
-21 -13 -47 -21 -27 -7 -58 -17 -70 -23 -11 -6 -26 -7 -31 -4 -6 4 -15 -1 -20
-10 -5 -9 -15 -15 -23 -12 -17 6 -39 -15 -39 -35 0 -12 7 -13 34 -7 18 4 39
10 45 14 6 4 19 9 28 11 10 2 32 10 50 16 18 7 35 10 38 7 10 -10 -18 -47 -34
-45 -19 1 -107 -19 -171 -38 -25 -8 -88 -16 -140 -19 -52 -3 -110 -10 -128
-16 -34 -13 -82 -6 -82 10 0 6 9 10 20 10 11 0 20 4 20 10 0 5 -20 7 -47 4
-49 -5 -72 -14 -35 -14 13 0 22 -6 22 -15 0 -20 -37 -19 -48 1 -6 10 -24 17
-48 18 -42 1 -82 25 -47 27 10 1 36 1 58 0 33 -1 36 1 19 8 -31 14 -39 31 -15
31 12 0 21 -4 21 -8 0 -8 137 -7 195 2 17 3 36 5 43 5 6 1 12 4 12 9 0 4 -94
7 -209 7 -192 0 -233 -2 -185 -9 26 -4 30 -26 4 -26 -12 0 -18 -4 -15 -10 3
-5 1 -10 -4 -10 -13 0 -15 -37 -2 -45 5 -3 12 -1 16 5 8 13 62 13 70 -1 10
-16 -1 -22 -45 -24 -22 -1 -43 -5 -47 -8 -7 -8 40 -10 149 -8 76 2 104 -9 71
-28 -17 -10 -17 -10 0 -11 34 0 11 -25 -32 -34 -29 -6 -49 -6 -60 1 -12 8 -22
7 -35 -3 -16 -11 -23 -11 -47 2 -16 8 -29 10 -29 5 0 -13 -93 -2 -102 13 -5 7
-16 6 -37 -7 -16 -9 -37 -17 -46 -17 -12 0 -15 -5 -11 -16 3 -9 6 -20 6 -25 0
-5 12 -9 26 -9 14 0 34 -5 45 -10 15 -8 23 -7 34 4 8 8 15 19 15 25 0 7 57 11
174 11 96 0 176 4 178 9 2 5 44 11 93 14 50 3 108 9 130 15 22 5 67 13 100 16
124 13 145 17 186 31 47 17 59 18 59 8 -1 -13 -75 -43 -116 -48 -89 -11 -188
-32 -191 -41 -1 -5 1 -15 6 -22 6 -11 20 -10 72 2 54 12 189 36 224 40 6 1 13
5 16 9 4 5 15 7 25 5 15 -3 12 -7 -15 -21 -19 -9 -44 -17 -57 -17 -12 0 -35
-5 -50 -10 -14 -6 -54 -15 -88 -20 -33 -5 -74 -12 -91 -16 -30 -7 -132 -10
-170 -5 -11 2 -47 2 -81 1 -50 -2 -62 -6 -70 -23 -5 -11 -17 -22 -27 -23 -11
-1 -21 -5 -25 -8 -3 -3 78 -6 181 -6 125 0 188 -4 193 -11 5 -8 -62 -10 -242
-6 -279 5 -354 13 -339 36 3 6 25 8 50 6 24 -3 47 -1 50 5 3 6 -4 10 -17 10
-13 0 -29 5 -34 10 -8 8 -19 7 -37 -1 -21 -9 -30 -9 -41 0 -10 9 -20 9 -33 2
-10 -5 -35 -13 -55 -16 -33 -5 -57 -20 -47 -30 2 -1 24 -6 49 -10 40 -7 43 -6
31 9 -14 17 -12 18 32 20 15 1 26 -3 24 -9 -2 -5 -9 -10 -14 -10 -18 0 -27
-14 -12 -19 20 -6 206 -18 261 -17 25 1 49 -3 53 -9 3 -5 28 -10 56 -10 27 0
49 -4 49 -10 0 -5 -13 -10 -29 -10 -17 0 -32 -3 -34 -7 -3 -5 18 -7 46 -7 78
3 85 4 62 14 -26 10 -13 15 90 30 44 6 105 16 135 21 79 15 143 27 160 31 8 2
16 -1 17 -7 0 -5 -3 -9 -8 -7 -5 1 -9 -2 -9 -8 0 -5 -22 -10 -48 -10 -27 0
-52 -3 -56 -7 -8 -8 -23 -12 -106 -24 -36 -5 -69 -12 -75 -14 -15 -6 204 4
243 11 20 4 32 2 32 -5 0 -6 -3 -11 -7 -11 -5 0 -46 -7 -93 -15 -47 -8 -105
-17 -130 -20 -25 -3 -67 -10 -95 -15 -27 -5 -77 -12 -110 -15 -33 -4 -64 -11
-69 -16 -6 -5 -20 -9 -32 -9 -37 0 -39 -20 -2 -21 123 -4 291 2 333 11 67 14
91 18 148 23 26 2 50 7 54 11 10 10 53 7 53 -4 0 -5 -9 -10 -20 -10 -12 0 -35
-7 -51 -16 -33 -17 -129 -38 -251 -57 -43 -6 -78 -14 -78 -17 0 -6 126 -3 172
4 31 5 48 -10 21 -17 -10 -3 5 -2 32 1 28 3 86 6 130 8 44 1 100 9 125 17 43
14 45 16 42 48 -5 57 -4 447 2 562 2 59 2 107 -2 107 -4 0 -18 -9 -32 -19z
m-860 -157 c0 -2 -7 -4 -15 -4 -8 0 -15 4 -15 10 0 5 7 7 15 4 8 -4 15 -8 15
-10z m685 -75 c-8 -11 -73 -29 -108 -29 -16 0 -40 -9 -53 -19 -26 -20 -66 -18
-58 4 7 17 43 27 139 39 17 3 32 5 35 6 3 1 8 2 13 1 4 0 7 3 7 9 0 5 7 7 15
4 8 -4 12 -10 10 -15z m-635 1 c0 -5 -4 -10 -10 -10 -5 0 -10 5 -10 10 0 6 5
10 10 10 6 0 10 -4 10 -10z m290 -19 c0 -6 -4 -13 -10 -16 -5 -3 -10 1 -10 9
0 9 5 16 10 16 6 0 10 -4 10 -9z m-50 -16 c0 -6 -20 -12 -45 -14 -57 -3 -84
12 -35 19 56 8 80 7 80 -5z m80 -10 c0 -9 9 -15 23 -15 18 0 19 -2 7 -10 -20
-13 -67 -13 -75 0 -3 6 1 10 9 10 9 0 16 7 16 15 0 8 5 15 10 15 6 0 10 -7 10
-15z m-70 -25 c0 -9 -27 -12 -85 -12 -38 0 -55 3 -55 10 0 4 32 8 70 9 40 1
70 -2 70 -7z m-500 -70 c0 -5 -4 -10 -10 -10 -5 0 -10 5 -10 10 0 6 5 10 10
10 6 0 10 -4 10 -10z m1026 -35 c-11 -8 -26 -16 -33 -16 -7 -1 -16 -2 -20 -4
-98 -26 -470 -42 -485 -21 -13 19 -9 25 15 19 29 -7 243 -7 282 0 17 3 62 8
102 11 39 3 82 10 95 15 12 6 32 10 43 10 20 0 20 0 1 -14z m-53 -265 c-10
-10 -86 -31 -91 -25 -3 2 8 9 24 16 16 6 36 15 44 19 18 9 36 1 23 -10z"/>
<path d="M3713 3219 c-1 -10 2 -19 8 -19 11 0 12 27 1 34 -4 2 -9 -4 -9 -15z"/>
<path d="M2608 3218 c-6 -16 -1 -89 7 -96 3 -3 5 20 5 51 0 56 -4 69 -12 45z"/>
<path d="M3550 3185 c0 -17 2 -18 24 -9 23 9 20 24 -4 24 -11 0 -20 -7 -20
-15z"/>
<path d="M4147 3133 c-10 -9 -9 -23 1 -23 5 0 9 7 9 15 0 17 -1 18 -10 8z"/>
<path d="M3598 3103 c7 -3 16 -2 19 1 4 3 -2 6 -13 5 -11 0 -14 -3 -6 -6z"/>
<path d="M2880 3090 c0 -5 5 -10 10 -10 6 0 10 5 10 10 0 6 -4 10 -10 10 -5 0
-10 -4 -10 -10z"/>
<path d="M4140 3077 c0 -15 4 -27 9 -27 6 0 8 10 6 21 -6 33 -15 36 -15 6z"/>
<path d="M2606 3082 c-7 -12 -2 -150 7 -158 4 -4 7 32 7 79 0 82 -3 97 -14 79z"/>
<path d="M2750 3082 c0 -9 92 -32 102 -26 4 3 5 11 1 20 -4 11 -9 12 -19 3 -8
-6 -21 -8 -31 -4 -28 12 -53 16 -53 7z"/>
<path d="M3647 3072 c-15 -10 -25 -21 -22 -24 8 -7 115 14 115 24 0 4 -6 8
-12 8 -7 0 -22 3 -33 5 -11 3 -32 -3 -48 -13z"/>
<path d="M3065 3071 c-3 -5 9 -14 26 -20 22 -8 29 -7 27 1 -5 15 -46 29 -53
19z"/>
<path d="M2668 3045 c4 -24 21 -33 35 -18 7 7 -21 43 -33 43 -4 0 -5 -11 -2
-25z"/>
<path d="M3454 3039 c-10 -4 -14 -8 -9 -9 6 -1 17 -3 25 -4 8 -2 35 3 60 10
l45 13 -51 -1 c-27 -1 -59 -5 -70 -9z"/>
<path d="M3008 3008 c2 -10 -1 -18 -7 -18 -14 0 -15 -37 -1 -45 6 -3 10 -2 10
4 0 6 15 7 35 4 23 -4 35 -2 35 6 0 6 12 11 28 11 l27 1 -32 14 c-34 14 -47
39 -15 28 9 -3 14 -3 10 1 -3 4 -26 9 -51 10 -38 2 -43 -1 -39 -16z"/>
<path d="M4140 2974 c0 -8 5 -12 10 -9 6 4 8 11 5 16 -9 14 -15 11 -15 -7z"/>
<path d="M2690 2960 c0 -5 5 -10 11 -10 5 0 7 5 4 10 -3 6 -8 10 -11 10 -2 0
-4 -4 -4 -10z"/>
<path d="M3218 2942 c-105 -4 -100 -22 6 -22 82 0 116 5 116 19 0 7 -13 7
-122 3z"/>
<path d="M2873 2907 c0 -7 9 -14 19 -14 11 -1 18 3 15 10 -5 17 -34 21 -34 4z"/>
<path d="M4152 2860 c0 -14 2 -19 5 -12 2 6 2 18 0 25 -3 6 -5 1 -5 -13z"/>
<path d="M3550 2861 c0 -6 20 -8 48 -4 64 7 66 13 4 13 -29 0 -52 -4 -52 -9z"/>
<path d="M3400 2848 c-23 -4 -8 -6 43 -5 42 1 77 5 77 9 0 8 -67 6 -120 -4z"/>
<path d="M3303 2843 c9 -2 23 -2 30 0 6 3 -1 5 -18 5 -16 0 -22 -2 -12 -5z"/>
<path d="M2613 2795 c0 -27 2 -38 4 -22 2 15 2 37 0 50 -2 12 -4 0 -4 -28z"/>
<path d="M2760 2820 c0 -5 10 -10 23 -10 18 0 19 2 7 10 -19 13 -30 13 -30 0z"/>
<path d="M2920 2820 c0 -5 9 -8 20 -7 21 1 18 10 -5 13 -8 1 -15 -2 -15 -6z"/>
<path d="M3288 2803 c7 -3 16 -2 19 1 4 3 -2 6 -13 5 -11 0 -14 -3 -6 -6z"/>
<path d="M3340 2801 c0 -5 11 -8 25 -6 38 4 43 15 7 15 -18 0 -32 -4 -32 -9z"/>
<path d="M3003 2692 c10 -10 15 -21 12 -24 -3 -3 47 -8 111 -12 82 -5 120 -4
128 4 8 8 1 11 -29 9 -79 -3 -204 13 -209 27 -3 8 -11 14 -17 14 -8 0 -6 -7 4
-18z"/>
<path d="M3138 2703 c7 -3 16 -2 19 1 4 3 -2 6 -13 5 -11 0 -14 -3 -6 -6z"/>
<path d="M3186 2698 c3 -4 9 -8 15 -8 5 0 9 4 9 8 0 5 -7 9 -15 9 -8 0 -12 -4
-9 -9z"/>
<path d="M2513 2660 c-18 -11 -33 -25 -33 -31 0 -8 6 -7 18 3 9 8 25 18 35 21
9 4 17 11 17 17 0 13 0 13 -37 -10z"/>
<path d="M4196 2673 c-9 -9 -7 -103 2 -103 20 1 42 30 42 56 0 28 -30 60 -44
47z"/>
<path d="M1168 2647 c-13 -5 -48 -11 -78 -13 -30 -3 -59 -10 -64 -15 -6 -5
-22 -9 -38 -9 -15 0 -31 -6 -35 -14 -4 -7 -15 -16 -23 -19 -8 -3 14 -3 50 0
36 3 67 9 68 14 6 14 29 11 35 -5 8 -19 -1 -26 -35 -26 -16 0 -39 -5 -50 -11
-15 -8 -22 -8 -28 1 -6 9 -15 8 -38 -4 -38 -20 -42 -20 -42 -1 0 26 -52 13
-87 -21 -24 -23 -29 -33 -19 -37 7 -3 18 -1 24 5 14 14 31 2 29 -21 -1 -12 -7
-17 -19 -13 -12 3 -18 -1 -18 -12 0 -9 5 -16 10 -16 23 0 8 -26 -16 -28 -21
-2 -24 2 -19 17 8 27 -6 33 -44 18 -19 -7 -34 -21 -37 -34 -4 -13 -12 -23 -20
-23 -8 0 -14 -6 -14 -14 0 -8 -4 -16 -10 -18 -5 -1 -11 -13 -13 -25 -2 -12 -6
-25 -9 -28 -9 -9 3 -45 13 -39 5 3 9 0 9 -6 0 -7 -6 -10 -12 -7 -7 2 -21 -2
-30 -11 -17 -14 -18 -13 -18 14 -1 25 -2 27 -11 11 -11 -19 -17 -40 -18 -65
-1 -6 -6 -11 -12 -10 -18 5 -34 -52 -20 -74 15 -25 14 -38 -4 -38 -14 0 -16
-18 -14 -122 1 -68 8 -143 15 -168 7 -25 15 -57 18 -72 3 -15 14 -34 23 -43
16 -16 17 -16 24 3 6 17 13 19 46 12 61 -12 67 -14 79 -29 8 -10 21 -12 49 -7
35 7 37 6 32 -13 -3 -14 0 -21 9 -21 8 0 14 10 14 25 0 27 9 32 28 13 9 -9 12
-9 12 0 0 7 5 12 10 12 6 0 10 -7 10 -16 0 -12 7 -15 30 -12 17 3 33 1 36 -4
3 -4 -2 -8 -10 -8 -9 0 -16 -5 -16 -11 0 -5 5 -7 10 -4 6 4 17 1 25 -5 13 -10
11 -16 -13 -41 -29 -31 -51 -36 -70 -17 -9 9 -16 7 -32 -7 -25 -23 -15 -31 47
-34 54 -2 63 -7 63 -27 0 -20 -66 -19 -78 2 -6 11 -11 13 -16 5 -12 -18 2 -29
44 -36 67 -11 78 7 81 131 l1 31 45 -10 c33 -8 50 -8 64 1 22 14 43 16 35 3
-7 -10 9 -8 37 4 9 4 23 3 30 -2 21 -17 52 0 52 27 0 25 0 25 89 23 50 -1 97
-5 105 -9 21 -9 64 -13 180 -14 80 -2 94 -5 98 -20 3 -12 12 -16 28 -13 12 3
26 0 29 -6 4 -6 15 -11 24 -11 9 0 28 -12 44 -27 23 -22 30 -24 43 -13 10 8
14 22 11 35 -4 14 2 27 14 38 21 18 27 47 10 47 -6 0 -13 -7 -16 -15 -4 -8
-16 -15 -28 -15 -11 -1 -32 -7 -46 -15 -38 -22 -53 -19 -46 9 7 30 -1 38 -25
23 -17 -10 -39 -4 -27 8 12 12 80 18 87 7 9 -15 97 29 94 48 -2 8 9 20 23 27
23 11 24 10 19 -10 -5 -20 -3 -19 19 6 14 15 26 23 26 18 0 -6 7 -11 15 -11 8
0 15 5 15 10 0 6 11 10 24 10 16 0 26 7 29 21 5 19 4 20 -18 5 -28 -18 -45
-20 -45 -6 0 6 9 10 20 10 13 0 22 9 26 26 6 22 10 24 35 19 22 -5 29 -3 29 9
0 9 7 16 15 16 8 0 15 7 15 16 0 14 3 14 16 3 8 -7 13 -21 11 -31 -5 -16 0
-18 41 -14 26 2 55 5 65 5 13 1 16 7 11 26 -4 16 -2 25 6 25 7 0 10 -7 6 -15
-3 -8 -1 -15 5 -15 5 0 14 -11 19 -25 9 -24 40 -36 40 -15 0 6 -5 10 -11 10
-5 0 -3 10 5 22 27 38 12 116 -19 104 -8 -3 -17 -1 -19 3 -3 5 -29 6 -58 4
-77 -6 -92 -5 -96 6 -4 12 -87 51 -108 51 -8 0 -14 5 -14 10 0 6 -7 10 -16 10
-9 0 -23 8 -30 18 -10 13 -15 14 -24 5 -7 -6 -9 -17 -4 -25 12 -18 15 -48 6
-48 -9 0 -33 56 -38 90 -2 14 -9 42 -16 63 -8 28 -8 43 1 63 9 20 9 34 -1 60
-15 41 -28 44 -28 7 0 -16 -4 -33 -8 -39 -10 -17 -87 -3 -87 16 0 9 -9 14 -22
13 -11 -1 -27 4 -33 12 -10 12 -9 15 4 15 9 0 16 7 16 15 0 16 21 16 32 0 4
-5 11 -6 15 -1 13 13 -25 34 -54 28 -23 -4 -25 -2 -20 17 3 14 0 24 -9 28 -9
3 -12 13 -9 24 6 19 -44 79 -66 79 -6 0 -7 5 -3 11 4 8 9 8 17 0 6 -6 17 -11
24 -11 7 0 31 -13 54 -29 22 -17 46 -32 52 -34 9 -3 8 -8 -2 -20 -9 -11 -10
-17 -2 -17 6 0 11 -9 11 -19 0 -10 7 -22 16 -25 10 -4 13 -13 9 -25 -3 -11 1
-26 11 -36 16 -16 18 -15 30 6 8 15 9 30 3 41 -5 9 -9 25 -9 35 0 10 -25 45
-55 77 -30 32 -55 62 -55 67 0 5 -6 9 -14 9 -7 0 -25 9 -40 21 -14 11 -32 19
-39 16 -6 -2 -32 7 -57 20 -25 14 -67 33 -95 44 -45 17 -51 18 -62 3 -7 -10
-13 -11 -18 -5 -3 6 -1 11 6 11 9 0 9 3 0 14 -8 9 -28 13 -61 11 -28 -1 -52 1
-55 5 -6 10 -138 8 -167 -3z m142 -31 c0 -15 68 -30 93 -20 11 4 13 -1 10 -20
-5 -26 -18 -35 -25 -16 -2 6 -29 14 -61 17 -51 5 -57 4 -51 -11 3 -9 2 -16 -2
-17 -5 0 -17 -2 -26 -4 -10 -2 -18 1 -18 6 0 5 7 9 15 9 8 0 15 5 15 10 0 6
-7 10 -15 10 -8 0 -15 7 -15 16 0 12 6 15 25 10 19 -5 23 -3 19 9 -4 10 0 15
15 15 12 0 21 -6 21 -14z m110 -2 c0 -2 -12 -4 -26 -4 -14 0 -23 4 -20 9 6 8
46 4 46 -5z m-250 -25 c0 -8 4 -8 15 1 15 13 39 5 29 -11 -3 -5 -9 -7 -14 -4
-4 3 -6 -4 -3 -15 3 -11 0 -20 -6 -20 -6 0 -11 5 -11 10 0 6 -13 10 -30 10
-28 0 -40 17 -23 33 11 11 43 8 43 -4z m348 -15 c23 -5 33 -44 10 -44 -22 0
-88 34 -88 46 0 11 18 10 78 -2z m96 -44 c32 -12 34 -30 4 -30 -30 0 -52 15
-44 29 9 13 8 13 40 1z m-526 -38 c-2 -8 -16 -20 -32 -25 -24 -8 -32 -6 -43 9
-15 21 -8 31 27 36 35 5 52 -2 48 -20z m135 12 c15 -3 27 -10 27 -15 0 -9 -33
-7 -87 6 -18 4 -30 11 -27 16 5 9 23 7 87 -7z m-227 -18 c8 -33 -1 -45 -27
-39 -21 6 -21 7 -4 20 17 12 17 13 2 13 -9 0 -17 7 -17 15 0 26 39 18 46 -9z
m324 14 c0 -5 -13 -10 -30 -10 -16 0 -30 5 -30 10 0 6 14 10 30 10 17 0 30 -4
30 -10z m85 1 c3 -5 1 -12 -5 -16 -5 -3 -10 1 -10 9 0 18 6 21 15 7z m-465
-16 c0 -8 -4 -15 -10 -15 -5 0 -10 7 -10 15 0 8 5 15 10 15 6 0 10 -7 10 -15z
m584 -3 c22 -4 41 -12 43 -19 4 -12 -10 -11 -38 1 -9 4 -29 8 -45 10 -16 2
-32 4 -36 5 -5 0 -8 5 -8 10 0 6 10 8 23 5 12 -3 40 -8 61 -12z m-218 -17 c-4
-11 4 -15 42 -15 26 0 57 0 70 0 23 0 32 -19 10 -21 -52 -4 -194 4 -196 12 -2
5 -8 7 -13 3 -5 -3 -9 2 -9 10 0 14 22 21 79 25 17 1 22 -3 17 -14z m-366 -15
c0 -13 -28 -25 -38 -16 -3 4 0 11 8 16 20 13 30 12 30 0z m-80 -20 c0 -5 -4
-10 -10 -10 -5 0 -10 5 -10 10 0 6 5 10 10 10 6 0 10 -4 10 -10z m200 -7 c0
-10 -4 -14 -8 -8 -4 6 -11 13 -16 18 -5 4 -2 7 7 7 10 0 17 -8 17 -17z m427
-7 c-2 -6 -14 -10 -25 -8 -14 2 -22 -2 -22 -11 0 -9 -9 -12 -30 -9 -41 6 -49
23 -10 20 21 -2 35 3 41 14 10 18 52 13 46 -6z m214 14 c10 0 19 -7 19 -15 0
-19 0 -19 -38 1 -33 16 -44 31 -16 20 9 -3 24 -6 35 -6z m-171 -15 c10 -13 9
-15 -8 -15 -15 0 -20 5 -16 15 4 8 7 15 9 15 1 0 8 -7 15 -15z m-589 -35 c9
-11 20 -16 24 -12 4 4 5 -4 3 -18 -2 -21 -9 -25 -36 -26 -26 -1 -33 3 -29 15
2 9 -3 23 -11 31 -12 11 -12 15 -3 18 11 4 10 6 0 14 -10 6 -6 7 11 3 14 -4
32 -15 41 -25z m385 15 c4 -8 13 -15 21 -15 8 0 11 -4 8 -10 -9 -15 -59 -12
-91 5 -19 10 -23 16 -13 19 8 2 21 7 29 9 27 10 41 7 46 -8z m-578 -17 c-5
-32 -28 -35 -28 -4 0 17 5 26 16 26 10 0 14 -7 12 -22z m122 7 c0 -8 -4 -15
-9 -15 -13 0 -22 16 -14 24 11 11 23 6 23 -9z m-50 -5 c0 -5 -12 -10 -27 -9
-25 0 -26 1 -8 9 27 12 35 12 35 0z m256 -5 c-10 -8 -23 -12 -28 -9 -14 9 2
24 25 24 21 -1 21 -1 3 -15z m570 2 c4 -4 -4 -7 -19 -7 -14 0 -29 5 -32 10 -7
12 39 9 51 -3z m-99 -11 c0 -8 -6 -12 -14 -9 -7 3 -13 9 -13 14 0 5 6 9 13 9
8 0 14 -6 14 -14z m114 -26 c6 0 8 -4 5 -9 -8 -12 -46 -2 -46 11 0 6 7 7 16 4
9 -3 20 -6 25 -6z m-584 -25 c0 -17 -23 -20 -32 -5 -3 6 -4 14 0 20 8 13 32 2
32 -15z m-219 9 c-4 -3 -12 -7 -20 -8 -7 -1 -22 -7 -33 -13 -11 -5 -26 -8 -33
-6 -8 3 -10 -1 -6 -11 4 -10 1 -16 -8 -16 -19 0 -16 39 3 51 15 9 106 13 97 3z
m142 -9 c0 -8 -4 -15 -10 -15 -5 0 -10 7 -10 15 0 8 5 15 10 15 6 0 10 -7 10
-15z m490 -6 c0 -5 -9 -9 -20 -9 -19 0 -26 11 -14 23 8 8 34 -3 34 -14z m155
-23 c6 -2 20 -7 33 -11 35 -11 26 -23 -15 -21 -50 4 -123 25 -123 36 0 18 47
16 105 -4z m-617 -23 c6 -19 -25 -16 -32 3 -4 11 -1 14 11 12 9 -2 18 -9 21
-15z m420 8 c6 0 12 -6 12 -12 0 -14 -62 -7 -67 7 -2 7 6 10 19 9 13 -1 29 -3
36 -4z m-88 -11 c0 -5 -8 -10 -17 -10 -10 0 -28 -3 -40 -6 -13 -4 -23 -2 -23
4 0 10 23 18 63 21 9 0 17 -3 17 -9z m385 -38 c-8 -9 -35 20 -28 31 4 6 11 3
19 -8 8 -10 12 -21 9 -23z m-795 12 c0 -9 -7 -14 -17 -12 -25 5 -28 28 -4 28
12 0 21 -6 21 -16z m-158 -16 c-6 -6 -15 -8 -19 -4 -4 4 -1 11 7 16 8 5 17 7
19 4 3 -2 -1 -10 -7 -16z m83 12 c3 -5 2 -10 -4 -10 -5 0 -13 5 -16 10 -3 6
-2 10 4 10 5 0 13 -4 16 -10z m936 -6 c10 -13 10 -17 0 -24 -8 -5 -11 -16 -6
-30 6 -18 3 -21 -11 -18 -19 3 -35 50 -26 76 6 17 27 15 43 -4z m-1071 -14 c0
-5 -12 -10 -27 -11 -16 0 -22 -3 -15 -6 20 -8 14 -33 -8 -33 -11 0 -20 7 -20
15 0 13 -5 12 -27 -4 -34 -24 -64 -30 -70 -14 -5 15 57 55 74 48 7 -2 14 -1
17 3 7 12 76 14 76 2z m1160 -15 c0 -8 -4 -15 -10 -15 -5 0 -10 7 -10 15 0 8
5 15 10 15 6 0 10 -7 10 -15z m-1082 -7 c-5 -13 -68 -21 -68 -9 0 14 13 21 43
21 17 0 27 -5 25 -12z m122 2 c0 -5 -9 -10 -20 -10 -11 0 -20 5 -20 10 0 6 9
10 20 10 11 0 20 -4 20 -10z m557 -15 c36 -2 68 -7 72 -13 7 -12 91 -21 91
-10 0 18 16 6 17 -13 2 -19 -2 -20 -30 -14 -68 15 -85 17 -190 22 -74 4 -107
9 -104 17 2 6 13 11 25 11 11 0 24 4 28 8 4 3 11 4 16 1 5 -3 39 -7 75 -9z
m-487 -4 c0 -15 -57 -33 -80 -26 -27 9 -21 15 20 20 18 2 35 6 38 9 8 9 22 7
22 -3z m314 -6 c4 -11 -1 -15 -19 -15 -24 0 -32 10 -18 23 11 12 31 8 37 -8z
m536 6 c0 -5 -7 -11 -15 -15 -9 -3 -15 0 -15 9 0 8 7 15 15 15 8 0 15 -4 15
-9z m-960 -15 c0 -9 -30 -14 -35 -6 -4 6 3 10 14 10 12 0 21 -2 21 -4z m-130
-20 c0 -8 5 -16 12 -18 6 -2 8 -10 4 -16 -4 -7 -30 -12 -64 -11 -56 1 -57 1
-27 14 17 8 24 14 18 15 -22 0 -14 18 10 23 41 8 47 7 47 -7z m1130 4 c0 -5
-4 -10 -10 -10 -5 0 -10 5 -10 10 0 6 5 10 10 10 6 0 10 -4 10 -10z m-160 -10
c0 -5 -5 -10 -11 -10 -5 0 -7 5 -4 10 3 6 8 10 11 10 2 0 4 -4 4 -10z m-1050
-4 c0 -11 -19 -15 -25 -6 -3 5 1 10 9 10 9 0 16 -2 16 -4z m-80 -21 c0 -9 -9
-15 -25 -15 -26 0 -34 15 -12 23 23 10 37 7 37 -8z m230 5 c0 -5 -4 -10 -10
-10 -5 0 -10 5 -10 10 0 6 5 10 10 10 6 0 10 -4 10 -10z m45 0 c3 -5 -1 -10
-9 -10 -9 0 -16 5 -16 10 0 6 4 10 9 10 6 0 13 -4 16 -10z m592 -5 c-6 -17
-37 -18 -37 -1 0 9 8 14 20 13 11 -1 19 -6 17 -12z m73 -6 c0 -5 -7 -9 -15 -9
-15 0 -20 12 -9 23 8 8 24 -1 24 -14z m85 0 c5 -5 -4 -9 -22 -9 -32 0 -48 11
-36 24 8 7 44 -2 58 -15z m202 -15 c-9 -9 -27 6 -27 22 0 13 2 13 16 -1 9 -9
14 -18 11 -21z m-107 4 c32 -9 64 -28 46 -28 -8 0 -92 19 -114 26 -7 2 -10 9
-7 15 4 6 14 7 24 4 9 -4 32 -12 51 -17z m-1090 -8 c0 -5 -12 -10 -27 -9 -25
0 -26 1 -8 9 27 12 35 12 35 0z m1196 -41 c4 -7 -2 -9 -17 -7 -13 2 -25 11
-27 21 -3 16 -1 17 17 8 11 -6 23 -16 27 -22z m-344 -31 c-15 -15 -152 -24
-152 -9 0 6 1 11 3 11 1 1 31 4 67 7 36 3 67 7 69 9 10 9 22 -9 13 -18z m151
10 c25 0 37 -3 34 -11 -3 -11 -34 -11 -112 -2 -11 1 -26 3 -33 4 -7 0 -11 5
-8 10 3 4 22 6 43 3 21 -3 55 -5 76 -4z m227 -13 c0 -8 -4 -15 -8 -15 -5 0 -9
7 -9 15 0 8 4 15 9 15 4 0 8 -7 8 -15z m-598 -27 c-7 -7 -12 -8 -12 -2 0 14
12 26 19 19 2 -3 -1 -11 -7 -17z m45 16 c-3 -3 -12 -4 -19 -1 -8 3 -5 6 6 6
11 1 17 -2 13 -5z m468 -4 c3 -5 -2 -10 -12 -11 -10 0 -3 -5 15 -10 41 -12 41
-25 0 -31 -22 -4 -38 1 -52 13 -18 17 -62 19 -88 3 -4 -3 -8 -1 -8 5 0 5 14
12 30 16 17 4 30 11 30 16 0 12 77 12 85 -1z m-1150 -20 c0 -8 8 -14 18 -14 9
1 17 -2 17 -7 0 -5 -13 -9 -30 -9 -22 0 -28 4 -24 15 4 10 0 15 -15 15 -12 0
-21 5 -21 11 0 6 12 9 28 7 16 -2 27 -9 27 -18z m414 4 c2 -2 1 -10 -2 -18 -8
-19 -124 -19 -131 0 -3 8 -2 14 2 15 38 3 76 10 81 14 4 5 41 -3 50 -11z
m1091 6 c8 -1 2 -6 -14 -10 -30 -9 -83 -3 -92 11 -4 7 55 7 106 -1z m-1328
-11 c68 0 88 -3 88 -14 0 -10 -23 -14 -95 -17 -111 -4 -115 -3 -115 24 0 15 4
18 17 14 9 -4 56 -7 105 -7z m808 -14 c0 -8 -7 -15 -15 -15 -8 0 -15 7 -15 15
0 8 7 15 15 15 8 0 15 -7 15 -15z m-50 -7 c0 -4 -18 -8 -41 -8 -22 0 -38 4
-35 8 2 4 21 8 40 8 20 0 36 -4 36 -8z m-106 -8 c5 0 6 -3 2 -7 -4 -4 -31 -8
-59 -8 -29 -1 -57 -3 -62 -6 -20 -12 -110 -1 -113 12 -2 11 20 14 110 12 62
-1 117 -2 122 -3z m436 -2 c0 -4 -12 -8 -27 -8 -19 0 -24 3 -15 8 17 11 42 11
42 0z m74 -30 c-3 -5 -9 -6 -14 -3 -4 3 -10 -1 -13 -7 -2 -7 -8 -10 -12 -6 -5
5 0 17 10 28 14 15 21 17 26 8 4 -7 5 -16 3 -20z m-414 2 c0 -14 -29 -18 -119
-19 -99 -1 -100 16 -1 21 36 2 77 4 93 5 15 1 27 -2 27 -7z m231 0 c16 0 29
-4 29 -10 0 -5 -22 -10 -50 -10 -47 0 -60 7 -43 24 4 3 13 4 21 1 7 -3 27 -5
43 -5z m-1173 -26 c32 -9 27 -24 -7 -24 -30 0 -46 12 -34 24 8 7 12 7 41 0z
m1597 -4 c-3 -5 -10 -10 -16 -10 -5 0 -9 5 -9 10 0 6 7 10 16 10 8 0 12 -4 9
-10z m55 0 c0 -5 -7 -10 -15 -10 -8 0 -15 5 -15 10 0 6 7 10 15 10 8 0 15 -4
15 -10z m87 -12 c-3 -8 -6 -5 -6 6 -1 11 2 17 5 13 3 -3 4 -12 1 -19z m-477 1
c0 -5 -13 -9 -30 -9 -16 0 -33 0 -37 -1 -4 0 -9 3 -10 8 -2 5 15 9 37 10 22 1
40 -3 40 -8z m-1120 -8 c3 -1 -2 -5 -10 -10 -15 -10 -30 -6 -30 9 0 4 8 7 18
5 9 -2 19 -4 22 -4z m1010 -6 c0 -8 -4 -15 -9 -15 -13 0 -22 16 -14 24 11 11
23 6 23 -9z m-960 -5 c-19 -13 -30 -13 -30 0 0 6 10 10 23 10 18 0 19 -2 7
-10z m60 0 c0 -5 -4 -10 -10 -10 -5 0 -10 5 -10 10 0 6 5 10 10 10 6 0 10 -4
10 -10z m210 0 c0 -5 -28 -11 -62 -12 -112 -2 -118 -2 -118 12 0 6 37 10 90
10 53 0 90 -4 90 -10z m830 -19 c0 -15 -16 -22 -35 -15 -13 5 -14 8 -3 15 18
12 38 11 38 0z m-60 -15 c0 -11 -19 -15 -25 -6 -3 5 1 10 9 10 9 0 16 -2 16
-4z m-1130 -16 c0 -5 -7 -10 -15 -10 -8 0 -15 5 -15 10 0 6 7 10 15 10 8 0 15
-4 15 -10z m40 0 c0 -5 -4 -10 -10 -10 -5 0 -10 5 -10 10 0 6 5 10 10 10 6 0
10 -4 10 -10z m1010 0 c0 -5 -9 -10 -20 -10 -11 0 -20 5 -20 10 0 6 9 10 20
10 11 0 20 -4 20 -10z m210 -18 c0 -10 -8 -18 -18 -19 -9 -1 -23 -3 -31 -5
-23 -5 -23 18 1 30 34 16 48 14 48 -6z m-1060 -17 c0 -21 -26 -31 -65 -27 -47
6 -44 17 8 35 45 15 57 14 57 -8z m-301 4 c30 -11 43 -29 20 -29 -6 0 -9 -7
-5 -15 3 -9 0 -15 -10 -15 -11 0 -14 6 -10 16 4 10 -4 19 -24 28 -17 7 -27 15
-23 19 9 9 15 9 52 -4z m109 -9 c6 0 12 -7 12 -15 0 -8 -5 -15 -11 -15 -5 0
-7 -4 -4 -10 3 -5 -3 -10 -13 -10 -11 0 -23 -7 -26 -16 -3 -8 -11 -12 -17 -8
-8 5 -4 12 11 24 19 15 20 18 6 23 -9 4 -16 14 -16 23 0 12 6 15 23 10 12 -3
28 -6 35 -6z m1046 -22 c-1 -11 5 -18 15 -18 9 0 5 -6 -13 -15 -15 -8 -32 -12
-37 -9 -5 3 -14 -7 -19 -21 -5 -14 -15 -23 -20 -20 -6 4 -8 11 -5 16 4 5 1 9
-4 9 -6 0 -11 7 -11 15 0 10 10 15 28 15 27 1 27 1 -7 15 -18 8 -44 12 -57 9
-13 -3 -24 -3 -24 0 0 13 40 21 97 21 49 0 58 -3 57 -17z m76 -18 c0 -5 -4
-10 -9 -10 -6 0 -13 5 -16 10 -3 6 1 10 9 10 9 0 16 -4 16 -10z m-282 -22 c-4
-12 -88 -25 -88 -13 0 9 42 24 68 24 14 1 22 -4 20 -11z m-763 -18 c0 -17 -38
-30 -56 -19 -11 7 -10 11 6 22 23 17 50 15 50 -3z m655 -7 c0 -5 -14 -9 -30
-10 -18 -1 -28 2 -25 7 7 12 55 14 55 3z m-265 -23 c7 -11 4 -11 -130 -15 -84
-3 -88 -2 -55 10 41 16 176 19 185 5z"/>
<path d="M3072 2600 c15 -23 68 -28 68 -6 0 16 -21 26 -56 26 -22 0 -23 -2
-12 -20z"/>
<path d="M3168 2613 c7 -3 16 -2 19 1 4 3 -2 6 -13 5 -11 0 -14 -3 -6 -6z"/>
<path d="M2545 2590 c-3 -5 -1 -10 4 -10 6 0 11 5 11 10 0 6 -2 10 -4 10 -3 0
-8 -4 -11 -10z"/>
<path d="M3348 2583 c7 -3 16 -2 19 1 4 3 -2 6 -13 5 -11 0 -14 -3 -6 -6z"/>
<path d="M2560 2560 c0 -5 5 -10 11 -10 5 0 7 5 4 10 -3 6 -8 10 -11 10 -2 0
-4 -4 -4 -10z"/>
<path d="M3096 2553 c-11 -11 -6 -23 9 -23 8 0 15 4 15 9 0 13 -16 22 -24 14z"/>
<path d="M3142 2551 c-10 -6 -10 -10 0 -19 8 -6 19 -7 26 -3 10 6 10 10 0 19
-8 6 -19 7 -26 3z"/>
<path d="M3440 2550 c-73 -7 -73 -10 0 -23 54 -10 119 -15 124 -10 11 11 -20
43 -39 41 -11 -1 -49 -4 -85 -8z"/>
<path d="M4210 2538 c-30 -11 -80 -24 -110 -28 -31 -4 -70 -15 -88 -24 -17 -9
-34 -16 -37 -15 -3 0 -39 -2 -80 -6 -70 -7 -75 -9 -75 -31 0 -16 6 -24 18 -25
12 0 10 -3 -7 -10 -17 -6 -27 -6 -31 1 -4 7 -16 6 -36 -5 -38 -20 -60 -19 -69
3 -9 25 -9 26 17 34 13 4 -15 4 -62 1 -81 -5 -110 -14 -110 -34 0 -5 10 -7 23
-5 12 3 44 8 70 11 44 6 48 5 45 -12 -3 -15 -13 -18 -63 -18 -33 0 -68 -4 -77
-9 -29 -14 -63 -3 -66 22 -4 28 -26 24 -30 -6 -2 -14 -11 -22 -22 -22 -10 0
-22 -5 -25 -10 -4 -7 -14 -6 -28 2 -54 30 -167 23 -167 -10 -1 -16 -1 -16 -14
1 -16 21 -40 23 -32 2 4 -12 -5 -15 -52 -16 -31 -1 -61 0 -67 1 -5 2 -20 2
-32 2 -12 -1 -25 3 -28 8 -10 16 -45 12 -45 -5 0 -8 -7 -15 -15 -15 -8 0 -15
7 -15 15 0 8 -4 15 -10 15 -5 0 -10 -7 -10 -16 0 -10 -6 -14 -15 -10 -9 3 -15
0 -15 -9 0 -8 9 -16 20 -16 26 -2 28 -2 71 -17 20 -7 41 -12 45 -11 28 5 44
-4 50 -26 6 -23 11 -25 63 -26 31 -1 68 -2 83 -3 22 -2 26 0 17 10 -6 7 -17
10 -25 7 -8 -3 -21 0 -29 7 -7 6 -24 11 -37 10 -40 -4 -42 -1 -14 25 34 32 49
31 70 0 9 -14 21 -23 27 -20 15 10 49 -5 49 -21 0 -20 88 -24 100 -5 5 10 97
7 107 -3 3 -3 11 2 18 11 9 12 26 16 64 15 28 0 56 -4 62 -8 22 -13 298 -2
339 13 8 4 29 7 47 9 18 2 57 17 87 33 30 17 64 31 75 31 11 0 22 4 25 8 3 5
32 17 66 27 55 17 60 21 60 46 0 15 -5 31 -11 34 -6 4 -9 29 -8 56 2 27 1 51
-2 53 -2 2 -29 -5 -59 -16z m-255 -128 c6 -10 -34 -20 -60 -15 -11 2 -24 4
-28 4 -5 1 -5 6 -2 11 4 6 10 8 14 6 4 -3 13 -1 20 3 14 9 48 3 56 -9z m-343
-73 c6 -9 8 -9 8 1 0 6 7 12 15 12 8 0 15 -4 15 -10 0 -5 11 -10 25 -10 30 0
30 -3 8 -36 -16 -24 -18 -25 -30 -8 -15 21 -71 23 -85 3 -7 -11 -11 -11 -15
-1 -2 6 -11 12 -19 12 -20 0 -18 38 3 42 39 7 68 5 75 -5z m224 -6 c-12 -14
-28 -18 -61 -15 -25 1 -45 -2 -45 -7 0 -6 -4 -8 -9 -5 -5 3 -7 15 -4 25 4 17
14 20 70 20 62 0 64 -1 49 -18z m-776 -37 c0 -18 -44 -18 -59 0 -9 11 -9 15 1
18 22 8 58 -4 58 -18z m364 20 c9 -3 16 -15 16 -25 0 -28 -43 -35 -74 -12 -33
23 -32 31 2 36 15 2 30 5 34 6 3 0 13 -2 22 -5z m96 -35 c0 -5 -17 -9 -37 -9
-34 0 -35 1 -18 14 19 14 55 11 55 -5z m310 11 c0 -5 -9 -10 -20 -10 -11 0
-20 5 -20 10 0 6 9 10 20 10 11 0 20 -4 20 -10z m-570 -10 c0 -5 -5 -10 -11
-10 -5 0 -7 5 -4 10 3 6 8 10 11 10 2 0 4 -4 4 -10z"/>
<path d="M2675 2540 c3 -5 8 -10 11 -10 2 0 4 5 4 10 0 6 -5 10 -11 10 -5 0
-7 -4 -4 -10z"/>
<path d="M3190 2539 c0 -5 9 -9 20 -9 11 0 20 2 20 4 0 2 -9 6 -20 9 -11 3
-20 1 -20 -4z"/>
<path d="M3240 2540 c0 -5 7 -10 16 -10 8 0 12 5 9 10 -3 6 -10 10 -16 10 -5
0 -9 -4 -9 -10z"/>
<path d="M3293 2538 c-6 -11 49 -10 65 0 8 5 -2 8 -24 8 -20 -1 -38 -4 -41 -8z"/>
<path d="M2562 2504 c14 -14 21 -15 30 -6 8 8 9 12 1 12 -6 0 -20 3 -30 6 -17
7 -17 6 -1 -12z"/>
<path d="M3065 2500 c3 -5 8 -10 11 -10 2 0 4 5 4 10 0 6 -5 10 -11 10 -5 0
-7 -4 -4 -10z"/>
<path d="M3198 2503 c7 -3 16 -2 19 1 4 3 -2 6 -13 5 -11 0 -14 -3 -6 -6z"/>
<path d="M3440 2501 c0 -6 14 -11 32 -11 23 0 29 -3 21 -11 -6 -6 -41 -10 -79
-9 -136 3 -210 -2 -221 -14 -5 -4 75 -5 177 -2 171 5 235 9 235 16 0 1 9 4 20
5 78 9 121 17 127 23 4 4 -14 6 -40 4 -92 -6 -198 -5 -234 2 -26 6 -38 5 -38
-3z"/>
<path d="M3740 2440 c0 -5 11 -10 24 -10 14 0 28 5 31 10 4 6 -7 10 -24 10
-17 0 -31 -4 -31 -10z"/>
<path d="M3010 2410 c-13 -8 -12 -10 3 -10 9 0 17 5 17 10 0 12 -1 12 -20 0z"/>
<path d="M2780 2400 c0 -5 5 -10 11 -10 5 0 7 5 4 10 -3 6 -8 10 -11 10 -2 0
-4 -4 -4 -10z"/>
<path d="M2670 2371 c0 -12 39 -25 48 -16 7 7 -17 25 -35 25 -7 0 -13 -4 -13
-9z"/>
<path d="M2793 2326 c-7 -8 -18 -17 -25 -20 -10 -5 -10 -7 0 -12 6 -3 12 -15
12 -25 0 -16 6 -20 28 -17 15 2 26 6 25 11 -2 4 -3 23 -3 42 0 37 -15 45 -37
21z"/>
<path d="M2600 2315 c0 -8 9 -15 19 -15 10 0 21 7 25 15 4 11 -1 15 -19 15
-16 0 -25 -6 -25 -15z"/>
<path d="M2716 2292 c-3 -6 -1 -14 5 -17 15 -10 25 3 12 16 -7 7 -13 7 -17 1z"/>
<path d="M2960 2232 c0 -4 9 -8 20 -9 11 -1 20 2 20 8 0 5 -9 9 -20 9 -11 0
-20 -4 -20 -8z"/>
<path d="M3942 2160 c-8 -13 -8 -20 -2 -20 6 0 13 7 17 15 9 24 -1 27 -15 5z"/>
<path d="M3772 2135 c-11 -13 -10 -15 7 -15 10 0 21 7 25 15 7 19 -15 19 -32
0z"/>
<path d="M3697 2119 c-3 -12 -1 -19 5 -17 13 5 20 38 8 38 -4 0 -10 -9 -13
-21z"/>
<path d="M4033 2110 c-13 -15 -23 -35 -23 -44 0 -8 -7 -19 -16 -24 -10 -6 -18
-24 -19 -48 -3 -56 -4 -57 -19 -51 -10 4 -12 0 -8 -16 5 -19 3 -20 -10 -9 -22
18 -30 2 -30 -59 1 -27 -3 -49 -9 -49 -5 0 -2 -11 7 -25 10 -15 13 -32 9 -42
-5 -12 -9 -14 -12 -5 -3 6 -9 10 -14 6 -5 -3 -3 -15 6 -27 19 -28 19 -46 -2
-69 -16 -18 -16 -21 2 -54 18 -34 20 -35 33 -17 10 12 13 13 10 3 -2 -8 4 -23
13 -32 22 -21 34 -7 31 35 -2 16 2 26 7 22 6 -3 14 3 20 13 11 21 4 62 -11 62
-5 0 -6 5 -3 10 11 17 -7 11 -21 -7 -12 -17 -13 -17 -14 -1 0 20 19 34 43 30
10 -2 17 3 17 12 0 9 -5 16 -11 16 -6 0 -1 14 11 30 12 18 16 30 10 30 -7 0
-10 7 -6 15 4 12 2 13 -15 2 -11 -6 -22 -22 -25 -34 -4 -13 -12 -23 -20 -23
-8 0 -11 6 -8 15 4 8 10 15 14 15 4 0 10 9 13 19 3 14 1 18 -9 14 -10 -4 -14
3 -14 22 0 15 4 24 10 20 6 -3 10 3 10 14 0 18 28 80 41 91 15 13 30 53 25 67
-4 9 -1 23 6 32 12 14 11 15 -5 2 -9 -8 -20 -11 -23 -8 -9 9 5 27 22 27 8 0
14 10 14 25 0 31 0 31 -27 -5z m-90 -285 c-12 -32 -23 -14 -14 23 1 2 5 1 11
-3 5 -3 7 -12 3 -20z m54 -170 c0 -8 -6 -15 -14 -15 -14 0 -17 12 -6 23 11 11
20 8 20 -8z m-47 -14 c0 -5 3 -16 6 -25 3 -9 1 -16 -6 -16 -6 0 -8 5 -5 10 3
6 1 10 -4 10 -6 0 -11 7 -11 15 0 8 5 15 10 15 6 0 10 -4 10 -9z"/>
<path d="M3538 2122 c-18 -3 -25 -21 -10 -23 4 0 19 -2 33 -4 16 -2 26 1 26
10 0 15 -23 23 -49 17z"/>
<path d="M3788 2073 c6 -2 18 -2 25 0 6 3 1 5 -13 5 -14 0 -19 -2 -12 -5z"/>
<path d="M3217 2064 c-1 -1 -22 -5 -46 -8 -25 -3 -49 -10 -54 -15 -11 -11 165
-2 178 10 5 6 1 9 -10 10 -11 0 -30 2 -43 3 -12 2 -23 2 -25 0z"/>
<path d="M3563 2063 c-24 -2 -43 -8 -43 -14 0 -12 210 -3 223 10 11 11 -80 13
-180 4z"/>
<path d="M2645 2040 c-4 -6 -10 -8 -15 -5 -5 3 -11 1 -15 -5 -3 -5 3 -10 14
-10 12 0 24 0 29 -1 4 0 8 7 10 15 4 18 -13 22 -23 6z"/>
<path d="M3206 2012 c-3 -5 1 -9 9 -9 8 0 12 4 9 9 -3 4 -7 8 -9 8 -2 0 -6 -4
-9 -8z"/>
<path d="M4141 1998 c0 -13 4 -32 8 -43 6 -15 8 -8 8 23 0 23 -4 42 -8 42 -5
0 -9 -10 -8 -22z"/>
<path d="M2482 2002 c-10 -3 -10 -7 -1 -18 15 -18 59 -18 59 0 0 14 -36 26
-58 18z"/>
<path d="M2887 1980 c-11 -34 -20 -76 -18 -84 1 -5 -3 -22 -10 -38 -9 -21 -15
-26 -24 -18 -18 15 -25 1 -30 -54 -2 -25 -8 -53 -14 -65 -13 -24 -15 -111 -2
-111 15 0 18 22 10 59 -6 29 -4 40 16 63 13 15 29 44 35 65 7 21 20 52 28 68
9 17 17 32 17 35 1 3 5 17 9 32 9 29 -9 76 -17 48z"/>
<path d="M2817 1966 c-4 -10 -5 -21 -2 -24 9 -9 17 6 13 25 -3 17 -4 17 -11
-1z"/>
<path d="M3420 1955 c0 -18 -27 -20 -32 -3 -3 7 -13 8 -34 3 -26 -8 -27 -9 -6
-12 12 -3 22 -8 22 -13 0 -5 3 -15 6 -24 4 -12 0 -16 -15 -16 -12 0 -21 -6
-21 -15 0 -19 17 -19 37 1 10 9 25 13 42 10 44 -10 55 5 34 47 -19 38 -33 48
-33 22z"/>
<path d="M2430 1938 c0 -4 9 -8 20 -8 11 0 20 4 20 8 0 4 -9 8 -20 8 -11 0
-20 -4 -20 -8z"/>
<path d="M4017 1943 c-12 -12 -7 -22 8 -17 8 4 15 10 15 15 0 11 -14 12 -23 2z"/>
<path d="M3268 1933 c7 -3 16 -2 19 1 4 3 -2 6 -13 5 -11 0 -14 -3 -6 -6z"/>
<path d="M3594 1915 c-13 -27 -9 -35 18 -35 15 0 18 5 13 20 -4 13 -2 20 7 20
10 0 9 3 -2 10 -21 14 -24 13 -36 -15z"/>
<path d="M3825 1920 c-3 -5 -1 -10 4 -10 6 0 11 5 11 10 0 6 -2 10 -4 10 -3 0
-8 -4 -11 -10z"/>
<path d="M2646 1913 c-11 -11 -6 -23 9 -23 8 0 15 4 15 9 0 13 -16 22 -24 14z"/>
<path d="M3160 1909 c0 -5 -9 -9 -20 -9 -11 0 -20 -4 -20 -8 0 -4 12 -7 28 -6
15 1 35 3 45 3 26 1 21 18 -8 23 -14 3 -25 1 -25 -3z"/>
<path d="M2475 1901 c3 -5 -3 -11 -12 -14 -17 -4 -17 -4 0 -12 22 -9 71 11 62
25 -3 6 -17 10 -31 10 -14 0 -23 -4 -19 -9z"/>
<path d="M3755 1900 c3 -5 11 -10 16 -10 6 0 7 5 4 10 -3 6 -11 10 -16 10 -6
0 -7 -4 -4 -10z"/>
<path d="M3990 1900 c0 -5 5 -10 10 -10 6 0 10 5 10 10 0 6 -4 10 -10 10 -5 0
-10 -4 -10 -10z"/>
<path d="M3085 1890 c3 -5 8 -10 11 -10 2 0 4 5 4 10 0 6 -5 10 -11 10 -5 0
-7 -4 -4 -10z"/>
<path d="M3660 1889 c0 -10 50 -8 56 2 3 5 -8 8 -25 7 -17 -1 -31 -5 -31 -9z"/>
<path d="M4003 1859 c-9 -11 -6 -14 13 -15 13 -1 24 2 24 8 0 5 -4 7 -9 4 -5
-4 -11 -1 -13 5 -3 8 -7 7 -15 -2z"/>
<path d="M3604 1841 c7 -10 70 -10 80 0 3 3 -15 6 -40 8 -28 1 -43 -2 -40 -8z"/>
<path d="M2901 1824 c0 -11 3 -14 6 -6 3 7 2 16 -1 19 -3 4 -6 -2 -5 -13z"/>
<path d="M2930 1776 c-6 -19 -19 -45 -29 -58 -10 -13 -21 -40 -24 -61 -3 -20
-13 -44 -21 -52 -8 -9 -18 -32 -22 -52 -4 -20 -17 -52 -30 -71 -23 -34 -30
-52 -19 -52 3 0 10 11 15 25 5 14 16 25 24 25 11 0 13 -16 10 -87 -4 -86 -23
-141 -44 -128 -6 4 -10 2 -10 -4 0 -5 4 -11 9 -13 11 -3 17 -154 7 -178 -3 -8
-1 -22 4 -30 8 -12 14 -9 38 19 23 28 33 33 56 29 30 -6 49 18 26 32 -13 8
-14 26 -10 174 1 15 5 38 10 51 6 17 5 27 -6 36 -8 7 -13 17 -11 23 2 6 1 20
-3 31 -4 12 -1 32 7 49 8 15 13 37 10 47 -3 11 0 19 6 19 6 0 8 3 4 6 -3 3 -2
16 3 29 7 18 5 24 -10 28 -13 3 -18 11 -15 23 3 11 12 49 21 87 9 37 20 67 25
67 5 0 9 5 9 10 0 23 -19 7 -30 -24z m-50 -619 c0 -8 -6 -14 -13 -14 -8 0 -14
6 -14 14 0 7 6 13 14 13 7 0 13 -6 13 -13z"/>
<path d="M3261 1780 c-7 -3 -41 -6 -76 -5 -44 2 -68 -2 -76 -11 -12 -15 -17
-169 -6 -180 7 -7 206 -8 213 -1 3 2 -2 10 -11 17 -22 18 -21 130 0 130 11 0
15 8 12 28 -4 27 -31 38 -56 22z"/>
<path d="M3615 1782 c-3 -3 -36 -6 -74 -7 -75 -3 -91 -8 -91 -31 0 -9 11 -14
30 -14 35 0 38 -12 10 -40 -20 -20 -31 -83 -17 -96 9 -9 198 -10 230 -1 24 7
26 11 20 35 -8 32 -8 41 2 110 l8 53 -57 -2 c-31 -1 -58 -5 -61 -7z"/>
<path d="M2720 1755 c0 -14 -6 -25 -12 -26 -33 -3 -65 4 -80 18 -17 15 -18 14
-18 -3 0 -33 -14 -45 -47 -38 -25 5 -29 10 -25 30 4 21 1 24 -29 25 -19 0 -90
3 -158 5 -98 4 -128 2 -146 -10 -15 -10 -26 -11 -33 -4 -18 18 -69 -2 -104
-40 -36 -40 -98 -133 -98 -148 0 -5 -9 -16 -20 -24 -11 -8 -20 -20 -20 -27 0
-7 -3 -13 -7 -13 -5 0 -16 -14 -25 -30 -17 -29 -17 -30 7 -36 13 -3 34 -2 47
2 13 4 57 8 98 10 41 2 89 7 105 12 18 5 41 5 56 0 15 -5 39 -7 55 -5 17 3 36
-2 46 -10 15 -13 19 -13 37 -1 12 8 19 18 16 21 -3 4 1 3 7 -3 7 -5 31 -10 54
-10 24 0 46 -4 49 -10 3 -5 16 -10 28 -10 18 0 19 2 7 10 -11 7 -5 10 23 10
20 0 37 -5 37 -11 0 -6 5 -7 13 -2 6 4 30 9 52 10 31 2 46 -3 67 -22 15 -14
30 -25 32 -25 8 0 8 14 7 333 0 26 -5 47 -11 47 -5 0 -10 -11 -10 -25z"/>
<path d="M3385 1750 c-4 -6 -3 -16 3 -22 6 -6 12 -6 17 2 4 6 3 16 -3 22 -6 6
-12 6 -17 -2z"/>
<path d="M2830 1701 c0 -5 -3 -16 -6 -25 -4 -11 -1 -16 10 -16 10 0 16 9 16
25 0 14 -4 25 -10 25 -5 0 -10 -4 -10 -9z"/>
<path d="M3816 1665 c-11 -8 -16 -18 -12 -22 3 -4 16 3 29 15 24 25 12 29 -17
7z"/>
<path d="M603 1616 c19 -15 22 -33 7 -38 -5 -1 3 -19 20 -38 16 -19 32 -31 36
-27 4 4 -3 15 -14 26 -25 21 -29 41 -7 41 8 0 15 6 15 13 0 21 -22 37 -49 37
-24 -1 -25 -2 -8 -14z"/>
<path d="M689 1609 c-12 -24 -11 -29 6 -29 8 0 15 4 15 9 0 5 12 12 26 15 31
8 25 19 -12 21 -15 0 -29 -6 -35 -16z"/>
<path d="M1267 1614 c6 -17 25 -23 55 -17 42 8 24 33 -22 31 -26 -1 -37 -5
-33 -14z"/>
<path d="M1364 1614 c3 -22 15 -28 29 -15 11 9 17 8 27 -4 15 -18 36 -20 46
-4 11 18 -15 34 -60 35 -31 1 -43 -3 -42 -12z"/>
<path d="M3400 1620 c0 -5 5 -10 11 -10 5 0 7 5 4 10 -3 6 -8 10 -11 10 -2 0
-4 -4 -4 -10z"/>
<path d="M857 1603 c-14 -13 -6 -23 19 -23 23 0 24 2 10 15 -16 17 -20 18 -29
8z"/>
<path d="M1533 1599 c10 -6 24 -9 30 -6 7 2 26 -5 44 -17 23 -16 29 -26 22
-37 -22 -36 7 -58 55 -40 31 12 35 31 6 31 -23 0 -26 10 -8 28 9 9 9 12 -2 13
-8 1 -19 1 -25 -1 -5 -1 -1 8 9 19 13 14 15 21 6 21 -7 0 -18 -7 -25 -17 -11
-15 -14 -15 -36 0 -13 10 -39 17 -59 17 -29 -1 -32 -2 -17 -11z"/>
<path d="M758 1573 c6 -2 18 -2 25 0 6 3 1 5 -13 5 -14 0 -19 -2 -12 -5z"/>
<path d="M1077 1556 c-35 -8 -51 -18 -61 -38 -16 -31 -12 -38 21 -38 13 0 22
-4 19 -9 -3 -5 1 -11 9 -15 8 -3 15 0 15 6 0 6 3 8 6 5 4 -3 15 -2 25 4 16 8
18 6 16 -10 -4 -29 -6 -30 -80 -32 -93 -3 -71 -18 28 -19 114 -1 157 6 175 30
13 17 27 21 80 22 75 1 114 -8 107 -26 -4 -9 5 -13 24 -14 19 0 29 4 29 14 0
8 7 14 15 14 8 0 15 4 15 9 0 5 9 11 20 14 11 3 20 11 20 19 -1 31 -18 40 -84
42 -36 0 -66 5 -66 9 0 5 -4 6 -9 2 -6 -3 -14 2 -19 10 -7 13 -16 14 -53 7
-24 -5 -66 -10 -94 -11 -27 -1 -54 -6 -59 -12 -15 -14 -36 -11 -36 5 0 22 -10
24 -63 12z m183 -41 c0 -8 -7 -15 -16 -15 -14 0 -14 3 -4 15 7 8 14 15 16 15
2 0 4 -7 4 -15z m-80 -5 c0 -5 -4 -10 -10 -10 -5 0 -10 5 -10 10 0 6 5 10 10
10 6 0 10 -4 10 -10z m271 -27 c12 -15 12 -16 -4 -10 -10 4 -23 7 -28 7 -5 0
-9 5 -9 10 0 16 26 12 41 -7z m-201 -3 c0 -5 -4 -10 -10 -10 -5 0 -10 5 -10
10 0 6 5 10 10 10 6 0 10 -4 10 -10z"/>
<path d="M1738 1559 c13 -5 30 -16 38 -24 13 -13 11 -17 -18 -35 -29 -18 -31
-20 -10 -20 12 0 25 7 28 15 4 8 10 13 14 10 4 -3 13 2 19 9 9 11 9 16 -1 23
-33 21 -62 33 -77 32 -11 0 -8 -3 7 -10z"/>
<path d="M702 1530 c-17 -27 -15 -50 4 -50 8 0 12 -4 9 -10 -4 -6 7 -10 25
-10 25 0 31 4 26 15 -3 8 -2 15 3 15 4 0 8 6 8 13 0 6 4 20 8 30 11 27 -66 24
-83 -3z m68 -10 c-10 -19 -30 -28 -30 -14 0 6 30 33 38 34 1 0 -2 -9 -8 -20z"/>
<path d="M3915 1540 c-3 -5 -1 -10 4 -10 6 0 11 5 11 10 0 6 -2 10 -4 10 -3 0
-8 -4 -11 -10z"/>
<path d="M4042 1485 c0 -25 4 -47 9 -51 5 -3 9 17 9 45 0 28 -4 51 -9 51 -5 0
-9 -20 -9 -45z"/>
<path d="M3980 1508 c0 -7 -14 -26 -30 -42 -27 -26 -30 -27 -30 -10 0 11 5 25
12 32 9 9 9 12 0 12 -7 0 -12 -4 -12 -10 0 -5 -9 -19 -20 -30 -11 -11 -16 -20
-11 -20 18 0 23 -59 8 -90 -13 -26 -13 -30 -1 -30 17 0 18 -12 2 -28 -10 -10
-10 -14 0 -21 9 -5 12 -38 10 -117 -1 -60 0 -109 3 -109 14 0 57 44 64 65 4
14 14 35 21 48 8 12 12 27 9 32 -3 5 -1 19 5 31 16 28 5 36 -19 15 -19 -17
-19 -17 -14 4 3 12 12 24 19 27 8 3 14 15 14 27 0 12 5 27 12 34 9 9 8 12 -5
12 -10 0 -20 7 -24 16 -5 12 -8 11 -17 -7 -10 -19 -26 -28 -26 -14 2 31 15 65
26 65 8 0 13 3 12 8 -1 4 4 18 11 32 10 17 11 25 2 28 -14 5 -15 32 -1 32 6 0
10 5 10 10 0 15 -30 12 -30 -2z m0 -72 c0 -7 -7 -19 -15 -26 -16 -13 -20 -3
-9 24 8 20 24 21 24 2z m-30 -52 c0 -3 -7 -12 -15 -20 -16 -17 -18 -14 -9 10
6 15 24 23 24 10z m-20 -104 c0 -5 -4 -10 -10 -10 -5 0 -10 5 -10 10 0 6 5 10
10 10 6 0 10 -4 10 -10z m30 -40 c0 -13 -5 -18 -15 -14 -16 7 -19 17 -8 27 12
13 23 7 23 -13z"/>
<path d="M3423 1461 c-2 -32 0 -42 7 -31 12 18 13 67 3 73 -5 3 -9 -16 -10
-42z"/>
<path d="M3211 1486 c-9 -11 -6 -12 14 -8 14 2 22 8 19 13 -8 13 -20 11 -33
-5z"/>
<path d="M1830 1470 c-8 -5 -11 -12 -7 -16 4 -4 13 -2 19 4 15 15 7 24 -12 12z"/>
<path d="M835 1440 c3 -5 8 -10 11 -10 2 0 4 5 4 10 0 6 -5 10 -11 10 -5 0 -7
-4 -4 -10z"/>
<path d="M2140 1440 c-24 -8 -23 -8 8 -9 20 -1 31 3 27 9 -3 6 -7 10 -8 9 -1
-1 -13 -5 -27 -9z"/>
<path d="M3080 1440 c-11 -7 -1 -10 35 -9 37 0 45 3 30 9 -27 12 -47 12 -65 0z"/>
<path d="M1708 1433 c-25 -3 -38 -9 -38 -19 0 -8 7 -14 15 -14 8 0 15 5 15 10
0 6 11 10 25 10 14 0 25 5 25 10 0 6 -1 9 -2 8 -2 -1 -20 -3 -40 -5z"/>
<path d="M3268 1433 c7 -3 16 -2 19 1 4 3 -2 6 -13 5 -11 0 -14 -3 -6 -6z"/>
<path d="M1365 1420 c-3 -5 -1 -10 4 -10 6 0 11 5 11 10 0 6 -2 10 -4 10 -3 0
-8 -4 -11 -10z"/>
<path d="M2375 1420 c3 -5 8 -10 11 -10 2 0 4 5 4 10 0 6 -5 10 -11 10 -5 0
-7 -4 -4 -10z"/>
<path d="M1754 1395 c-12 -8 -24 -12 -27 -9 -3 3 -12 -3 -19 -15 -8 -13 -23
-21 -41 -21 -16 0 -26 -4 -22 -10 3 -5 1 -18 -5 -29 -7 -13 -7 -22 0 -26 5 -3
10 -3 10 2 0 4 14 14 31 22 40 18 129 101 109 101 -9 0 -25 -7 -36 -15z"/>
<path d="M870 1386 c0 -22 17 -28 24 -10 9 22 8 24 -9 24 -8 0 -15 -6 -15 -14z"/>
<path d="M920 1390 c0 -6 14 -13 30 -16 17 -4 30 -11 30 -16 0 -6 7 -5 16 3
14 11 13 14 -8 25 -28 16 -68 18 -68 4z"/>
<path d="M1526 1375 c-16 -14 -32 -25 -37 -25 -4 0 -5 -9 -2 -20 4 -16 0 -20
-17 -20 -19 0 -21 -2 -10 -15 11 -14 17 -11 44 18 17 19 36 36 42 38 14 5 29
49 17 49 -4 0 -21 -11 -37 -25z"/>
<path d="M1980 1393 c0 -7 -7 -10 -15 -7 -8 4 -15 2 -15 -4 0 -5 -12 -7 -27
-5 -72 11 -85 9 -118 -16 -22 -17 -34 -33 -32 -46 1 -12 -3 -19 -12 -17 -21 4
-46 -39 -42 -73 1 -18 15 -41 32 -57 35 -33 36 -33 55 -13 9 8 22 15 30 15 8
0 14 -7 14 -15 0 -10 11 -15 35 -15 19 0 35 -4 35 -10 0 -5 -18 -10 -39 -10
-22 0 -43 -5 -46 -10 -4 -6 -12 -4 -22 6 -9 9 -25 13 -37 10 -34 -9 -64 3 -59
24 4 15 -3 19 -39 25 -89 13 -100 17 -94 31 3 8 1 14 -4 14 -6 0 -10 -7 -10
-16 0 -10 -6 -14 -15 -10 -9 3 -15 0 -15 -8 0 -20 12 -27 27 -15 9 8 17 8 26
1 6 -5 29 -12 50 -15 45 -6 57 -14 33 -23 -9 -3 -14 -10 -11 -15 3 -4 -7 -15
-22 -23 -22 -11 -53 -13 -133 -9 l-106 6 -12 -28 c-9 -19 -16 -25 -23 -18 -12
12 -119 -82 -119 -104 0 -6 -8 -17 -17 -22 -16 -9 -14 -10 8 -11 28 0 42 20
33 45 -4 9 1 17 12 21 11 4 26 13 34 20 8 7 33 14 55 16 34 2 40 6 37 23 -2
16 4 21 25 23 16 1 35 -2 43 -8 12 -7 12 -12 -4 -29 -13 -14 -15 -24 -8 -37 6
-11 11 -13 16 -5 11 18 56 14 56 -6 0 -9 -2 -14 -6 -11 -3 3 -21 2 -40 -2 -31
-7 -36 -5 -49 19 -14 26 -14 26 -21 4 -3 -13 -14 -24 -23 -25 -9 0 -20 -2 -26
-3 -5 -2 -23 -3 -39 -4 l-28 -1 23 -19 c19 -16 25 -17 27 -5 5 21 100 19 124
-2 16 -16 18 -16 24 0 3 9 13 16 21 16 8 0 12 -4 8 -9 -3 -5 -1 -12 4 -16 24
-14 511 1 511 17 0 12 28 10 32 -3 3 -8 10 -6 20 5 19 19 68 22 68 4 0 -20
-13 -35 -35 -41 -15 -5 -679 -20 -765 -18 -8 0 -29 -2 -47 -5 -25 -4 -31 -9
-28 -24 4 -21 3 -22 -65 -25 -72 -3 -184 -16 -200 -23 -15 -6 -27 -6 -145 -11
-55 -2 -58 -3 -37 -15 20 -10 21 -14 9 -24 -7 -7 -16 -9 -19 -6 -3 2 -8 -2
-12 -11 -4 -10 2 -19 17 -24 16 -6 23 -5 25 6 3 11 17 13 65 9 34 -2 64 -5 67
-6 3 -1 30 -1 60 -1 76 1 113 -8 106 -25 -4 -11 7 -14 57 -13 59 1 60 2 20 8
-68 11 -62 21 11 21 57 0 67 -3 62 -15 -4 -10 1 -15 14 -15 12 0 17 5 14 14
-7 19 16 25 65 19 25 -4 41 -11 41 -19 0 -20 18 -17 22 3 2 11 15 17 43 18 53
2 104 15 112 28 4 6 -2 8 -14 5 -25 -7 -56 9 -47 24 5 8 -24 9 -100 6 -58 -3
-108 -2 -111 2 -7 11 21 18 75 19 25 0 61 5 80 11 19 5 60 10 90 10 30 0 62 5
70 10 11 7 1 9 -31 6 -41 -4 -81 6 -69 17 3 2 55 7 115 10 61 3 115 6 120 7
25 5 46 -1 43 -12 -5 -13 -31 -19 -75 -18 -13 0 -23 -6 -23 -14 0 -9 -25 -18
-77 -26 -75 -13 -77 -14 -43 -22 50 -13 153 -18 165 -8 6 5 72 10 148 11 111
1 139 -2 152 -14 21 -21 19 -30 -4 -17 -25 13 -82 13 -115 0 -14 -5 -26 -6
-26 -1 0 16 -50 6 -55 -11 -5 -13 -22 -17 -45 -8 -3 1 -9 1 -15 0 -5 -1 -48
-4 -95 -5 -47 -2 -93 -7 -102 -10 -19 -8 -24 -40 -8 -50 6 -3 10 -13 10 -21 0
-8 -4 -14 -10 -14 -5 0 -10 9 -10 20 0 11 -7 20 -15 20 -8 0 -15 -4 -15 -10 0
-5 -11 -12 -25 -16 -37 -9 -30 -31 8 -25 5 1 56 2 113 2 101 1 106 2 114 25 7
16 14 22 26 17 12 -4 13 -8 3 -14 -8 -4 -10 -11 -7 -15 4 -3 109 -8 233 -9
182 -3 225 -1 225 10 0 7 -5 15 -11 17 -8 3 -6 10 5 20 21 21 20 38 -1 39 -10
1 -31 3 -48 4 -50 3 -55 5 -55 15 0 6 9 18 20 27 12 11 20 30 20 49 0 52 26
62 110 42 10 -2 15 6 16 30 2 31 -8 42 -21 22 -12 -20 -36 -11 -33 13 3 19 9
22 53 22 49 0 50 -1 50 -30 0 -25 4 -30 25 -30 16 0 26 6 28 18 2 10 -3 17
-13 17 -24 0 -53 84 -33 96 5 3 16 0 25 -7 13 -11 17 -10 28 4 7 9 18 17 25
17 14 0 70 57 62 64 -8 9 -42 -14 -42 -27 0 -9 -17 -14 -47 -15 -66 -4 -83
-10 -83 -33 0 -25 -25 -35 -45 -19 -8 7 -15 9 -15 4 0 -5 -5 -1 -11 9 -8 13
-14 15 -29 7 -30 -16 -49 -12 -43 9 3 13 20 23 51 31 l47 12 -30 12 c-16 7
-35 11 -42 9 -7 -3 -10 3 -6 16 4 15 13 21 34 21 15 0 31 5 34 10 6 10 -57 16
-117 11 -21 -2 -28 2 -28 15 0 16 -1 16 -15 -2 -22 -29 -18 -53 10 -60 14 -3
25 -12 25 -20 0 -8 6 -14 14 -14 18 0 13 -39 -6 -53 -10 -6 -10 -10 -1 -13 7
-3 9 -12 7 -19 -4 -10 -26 -14 -80 -14 -76 0 -98 9 -67 29 13 8 15 13 5 17
-10 4 -10 8 0 21 11 12 11 16 0 20 -7 2 -22 13 -32 25 -17 17 -18 23 -6 36 7
9 16 24 19 34 7 18 47 24 47 7 0 -5 7 -10 15 -10 8 0 15 7 15 15 0 11 -12 15
-46 15 -27 0 -43 -4 -39 -10 3 -5 -1 -10 -10 -10 -11 0 -15 7 -13 23 2 16 11
23 31 25 15 2 27 7 27 11 0 5 9 11 21 14 20 5 19 8 -15 41 -19 20 -42 36 -51
36 -8 0 -15 7 -15 15 0 10 -10 15 -32 15 -36 0 -66 14 -51 23 5 3 24 5 41 5
40 -1 47 5 33 29 -6 10 -11 13 -11 6z m-127 -58 c4 -8 2 -17 -3 -20 -13 -8
-40 6 -40 21 0 19 36 18 43 -1z m115 -56 c-17 -12 -32 -6 -36 14 -2 10 5 17
20 19 26 3 38 -20 16 -33z m47 -19 c3 -5 1 -10 -4 -10 -6 0 -11 5 -11 10 0 6
2 10 4 10 3 0 8 -4 11 -10z m-165 -14 c0 -22 -17 -28 -50 -21 -50 11 -33 31
28 34 13 1 22 -5 22 -13z m40 -6 c0 -5 -2 -10 -4 -10 -3 0 -8 5 -11 10 -3 6
-1 10 4 10 6 0 11 -4 11 -10z m125 -10 c3 -5 1 -10 -4 -10 -6 0 -11 5 -11 10
0 6 2 10 4 10 3 0 8 -4 11 -10z m-118 -36 c18 -5 20 -9 11 -24 -10 -15 -14
-16 -40 -3 -43 22 -23 41 29 27z m98 -64 c3 -5 -3 -10 -14 -10 -12 0 -21 5
-21 10 0 6 6 10 14 10 8 0 18 -4 21 -10z m185 -21 c0 -4 -7 -6 -15 -3 -8 4
-15 10 -15 15 0 4 7 6 15 3 8 -4 15 -10 15 -15z m-612 -57 c2 -8 -10 -12 -35
-12 -34 1 -36 2 -20 14 21 16 49 15 55 -2z m82 5 c0 -5 7 -4 15 3 15 12 35 6
35 -11 0 -5 -25 -9 -55 -9 -42 0 -55 3 -55 15 0 11 9 15 30 13 17 -1 30 -6 30
-11z m138 7 c20 -3 32 -11 32 -21 0 -11 -6 -14 -24 -9 -18 4 -25 1 -29 -15 -3
-12 -10 -18 -16 -14 -6 3 -11 1 -11 -4 0 -6 7 -11 15 -11 8 0 15 -9 15 -20 0
-23 -4 -24 -30 -10 -14 7 -18 22 -18 58 -1 53 3 56 66 46z m158 -31 c-3 -8 -6
-17 -6 -19 0 -2 -4 -4 -9 -4 -10 0 -21 36 -14 44 10 10 34 -7 29 -21z m67 12
c1 -5 -6 -11 -15 -13 -11 -2 -18 3 -18 13 0 17 30 18 33 0z m-110 -15 c3 -13
0 -20 -9 -20 -8 0 -14 2 -14 4 0 2 -3 11 -6 20 -4 10 -1 16 9 16 8 0 17 -9 20
-20z m-303 -55 c0 -9 -6 -12 -15 -9 -8 4 -15 10 -15 15 0 5 7 9 15 9 8 0 15
-7 15 -15z m90 -11 c0 -12 -5 -14 -17 -9 -10 4 -26 7 -35 7 -10 0 -18 3 -18 9
0 5 16 9 35 9 25 0 35 -4 35 -16z m150 6 c0 -5 -4 -10 -10 -10 -5 0 -10 5 -10
10 0 6 5 10 10 10 6 0 10 -4 10 -10z m160 -25 c0 -8 -4 -15 -9 -15 -13 0 -22
16 -14 24 11 11 23 6 23 -9z m170 -69 c0 -19 -26 -27 -39 -12 -13 15 -4 26 21
26 10 0 18 -6 18 -14z m-158 -29 c10 -17 -1 -28 -20 -19 -9 5 -28 6 -42 2
l-25 -6 22 -8 c13 -4 26 -5 31 -2 4 2 14 0 22 -6 12 -8 12 -9 -2 -4 -10 3 -19
2 -22 -2 -7 -11 -111 -8 -114 3 -1 6 6 11 18 13 18 3 18 5 5 19 -8 8 -13 18
-11 21 7 11 130 1 138 -11z m-538 -2 c-4 -8 -12 -15 -20 -15 -8 0 -14 7 -14
15 0 8 9 15 20 15 13 0 18 -5 14 -15z m46 0 c0 -8 -2 -15 -4 -15 -2 0 -6 7
-10 15 -3 8 -1 15 4 15 6 0 10 -7 10 -15z m575 -25 c3 -6 -4 -10 -17 -10 -18
0 -20 2 -8 10 19 12 18 12 25 0z m-310 -30 c3 -5 -3 -10 -15 -10 -12 0 -18 5
-15 10 3 6 10 10 15 10 5 0 12 -4 15 -10z m-445 -10 c0 -5 -7 -10 -15 -10 -8
0 -15 5 -15 10 0 6 7 10 15 10 8 0 15 -4 15 -10z m-375 -20 c-8 -13 -64 -17
-69 -5 -3 8 9 12 35 12 21 0 36 -3 34 -7z m525 -20 c0 -5 -12 -10 -27 -10 -22
0 -25 2 -13 10 20 13 40 13 40 0z m670 -16 c0 -8 -8 -14 -18 -14 -10 0 -23 -5
-29 -11 -8 -8 -13 -8 -17 0 -4 6 -38 11 -79 11 -51 0 -68 3 -57 10 8 6 48 9
88 9 42 -1 78 3 84 9 13 13 28 6 28 -14z m-280 -24 c0 -5 -2 -10 -4 -10 -3 0
-8 5 -11 10 -3 6 -1 10 4 10 6 0 11 -4 11 -10z m360 -30 c0 -18 -3 -21 -9 -12
-7 12 -12 12 -29 1 -16 -10 -24 -11 -33 -2 -20 20 -3 38 35 38 32 0 36 -3 36
-25z m-244 -17 c-10 -10 -19 5 -10 18 6 11 8 11 12 0 2 -7 1 -15 -2 -18z m79
18 c7 -12 -12 -24 -25 -16 -11 7 -4 25 10 25 5 0 11 -4 15 -9z m-160 -12 c4
-6 5 -12 2 -15 -7 -7 -37 7 -37 17 0 13 27 11 35 -2z"/>
<path d="M2139 1389 c-10 -6 -10 -9 -1 -9 6 0 11 -6 10 -12 -2 -7 6 -13 17
-13 27 0 34 40 7 42 -10 1 -25 -3 -33 -8z"/>
<path d="M3420 1359 c0 -20 7 -56 15 -79 8 -23 13 -46 10 -50 -9 -14 24 -78
50 -99 15 -11 33 -17 41 -14 15 5 20 23 6 23 -4 0 -16 20 -27 45 -11 25 -23
45 -27 45 -3 0 -5 14 -4 31 2 24 -3 33 -22 40 -27 11 -29 56 -1 51 12 -2 15 4
12 22 -4 18 -11 23 -29 22 -21 -1 -24 -6 -24 -37z"/>
<path d="M1070 1379 c-37 -7 -31 -9 40 -13 54 -4 100 3 100 15 0 10 -88 9
-140 -2z"/>
<path d="M1252 1376 c14 -11 13 -13 -13 -25 -16 -7 -36 -11 -43 -8 -14 6 -26
-12 -26 -36 0 -7 5 -5 10 4 11 19 59 17 70 -2 5 -7 13 2 21 25 15 42 25 46 31
11 3 -14 1 -25 -3 -25 -5 0 -9 -11 -9 -25 0 -36 32 -32 77 10 20 19 34 35 29
35 -4 0 0 7 9 16 9 9 14 18 12 20 -2 2 -44 6 -93 8 -72 4 -86 2 -72 -8z m86
-18 c-6 -18 -28 -21 -28 -4 0 9 7 16 16 16 9 0 14 -5 12 -12z"/>
<path d="M2270 1380 c0 -5 9 -10 20 -10 11 0 20 -4 20 -9 0 -11 38 -3 45 10 3
4 -3 7 -12 7 -10 -1 -30 2 -45 5 -17 5 -28 3 -28 -3z"/>
<path d="M2711 1371 c-7 -5 -10 -14 -7 -20 4 -6 -3 -15 -16 -20 -22 -9 -21
-10 8 -10 20 -1 34 5 38 15 9 22 -6 45 -23 35z"/>
<path d="M3659 1367 c12 -12 180 -17 187 -6 3 5 -28 9 -68 10 -40 0 -85 2
-100 3 -16 1 -24 -2 -19 -7z"/>
<path d="M2040 1360 c0 -6 21 -10 46 -10 25 0 43 4 40 8 -7 12 -86 14 -86 2z"/>
<path d="M2969 1325 c-3 -5 -7 -44 -7 -85 -1 -55 1 -70 9 -58 5 10 9 48 7 85
-2 38 -6 64 -9 58z"/>
<path d="M3666 1323 c-2 -2 8 -16 23 -32 14 -15 33 -36 42 -48 12 -15 24 -19
44 -15 19 3 23 7 14 13 -7 4 -17 5 -21 3 -4 -3 -8 0 -8 5 0 6 9 11 20 11 16 0
20 7 20 30 0 17 -4 30 -10 30 -5 0 -10 -4 -10 -10 0 -12 -47 -13 -54 -1 -6 9
-53 21 -60 14z"/>
<path d="M3830 1299 c0 -11 5 -17 10 -14 6 3 10 13 10 21 0 8 -4 14 -10 14 -5
0 -10 -9 -10 -21z"/>
<path d="M2148 1289 c-26 -27 -2 -46 52 -41 23 3 37 8 31 12 -9 5 -8 10 4 20
15 12 16 12 19 -12 1 -8 12 -12 26 -10 14 2 37 5 53 6 15 2 30 4 35 5 4 1 -10
10 -32 21 -52 26 -163 26 -188 -1z"/>
<path d="M2540 1290 c0 -5 16 -10 36 -10 21 0 33 4 29 10 -3 6 -19 10 -36 10
-16 0 -29 -4 -29 -10z"/>
<path d="M1633 1253 c-31 -21 -29 -33 6 -33 20 0 30 6 34 19 6 26 -13 32 -40
14z"/>
<path d="M2665 1260 c3 -5 15 -10 26 -10 10 0 19 5 19 10 0 6 -12 10 -26 10
-14 0 -23 -4 -19 -10z"/>
<path d="M3020 1255 c-1 -5 -2 -27 -4 -48 -3 -41 12 -62 21 -28 3 12 9 21 14
21 5 0 9 9 9 20 0 11 -6 20 -14 20 -8 0 -17 6 -19 13 -3 6 -6 8 -7 2z"/>
<path d="M3226 1244 c-21 -21 -20 -24 9 -24 18 0 25 5 25 20 0 24 -13 26 -34
4z"/>
<path d="M3823 1245 c-17 -18 -16 -32 1 -38 19 -8 35 11 29 34 -6 22 -13 23
-30 4z"/>
<path d="M3105 1240 c3 -5 11 -10 16 -10 6 0 7 5 4 10 -3 6 -11 10 -16 10 -6
0 -7 -4 -4 -10z"/>
<path d="M4045 1231 c-3 -5 -1 -12 5 -16 5 -3 10 1 10 9 0 18 -6 21 -15 7z"/>
<path d="M2648 1203 c7 -3 16 -2 19 1 4 3 -2 6 -13 5 -11 0 -14 -3 -6 -6z"/>
<path d="M1466 1165 c-27 -29 -26 -56 0 -30 9 8 22 15 29 15 21 0 27 16 10 30
-11 10 -19 7 -39 -15z"/>
<path d="M2300 1180 c0 -5 14 -10 30 -10 17 0 30 5 30 10 0 6 -13 10 -30 10
-16 0 -30 -4 -30 -10z"/>
<path d="M3745 1180 c28 -12 37 -12 30 0 -3 6 -16 10 -28 9 -21 0 -21 -1 -2
-9z"/>
<path d="M3332 1173 c-19 -8 -4 -22 18 -16 11 3 17 9 14 14 -6 10 -12 10 -32
2z"/>
<path d="M3797 1159 c6 -21 25 -30 43 -19 20 12 5 38 -23 38 -19 0 -23 -5 -20
-19z"/>
<path d="M2481 1157 c0 -7 4 -21 9 -32 7 -17 9 -17 9 -2 1 10 9 17 22 17 11 0
30 5 42 11 16 9 22 9 25 0 5 -16 22 -14 22 4 0 11 -14 14 -65 14 -43 -1 -65
-5 -64 -12z"/>
<path d="M3128 1163 c-26 -6 -22 -18 7 -19 14 -1 25 2 25 6 0 12 -12 17 -32
13z"/>
<path d="M3220 1160 c-13 -8 -12 -10 3 -10 9 0 17 5 17 10 0 12 -1 12 -20 0z"/>
<path d="M3260 1149 c0 -5 5 -7 10 -4 6 3 10 8 10 11 0 2 -4 4 -10 4 -5 0 -10
-5 -10 -11z"/>
<path d="M4022 1120 c-14 -23 -15 -30 -3 -30 8 0 24 41 18 47 -2 1 -8 -7 -15
-17z"/>
<path d="M1543 1123 c9 -2 23 -2 30 0 6 3 -1 5 -18 5 -16 0 -22 -2 -12 -5z"/>
<path d="M2720 1119 c0 -5 -4 -8 -9 -5 -5 3 -11 -1 -15 -9 -3 -8 -12 -15 -21
-15 -8 0 -15 -4 -15 -10 0 -5 -7 -10 -15 -10 -8 0 -15 -7 -15 -14 0 -8 -16
-27 -35 -42 -19 -14 -33 -30 -30 -34 3 -5 -1 -11 -7 -13 -7 -3 -2 -6 12 -6 45
-2 172 115 163 149 -6 21 -13 27 -13 9z"/>
<path d="M2990 1099 c0 -13 -10 -23 -29 -30 -22 -8 -33 -22 -49 -62 -11 -29
-19 -53 -17 -55 6 -7 35 12 35 24 0 8 4 14 9 14 5 0 13 10 17 23 4 12 9 24 13
27 3 3 11 14 17 25 7 11 19 19 28 17 19 -3 21 9 4 26 -18 18 -28 15 -28 -9z"/>
<path d="M3098 1079 c-10 -10 -18 -23 -18 -29 0 -5 -18 -28 -40 -52 -43 -47
-48 -58 -25 -58 8 0 15 4 15 10 0 12 53 9 61 -3 8 -11 49 9 49 24 0 6 5 7 10
4 6 -4 8 -11 5 -16 -15 -23 23 -6 48 22 22 25 25 34 16 51 -6 11 -9 29 -6 39
5 20 -17 27 -28 9 -3 -5 -15 -10 -26 -10 -10 0 -19 -6 -19 -13 0 -19 -41 -50
-52 -39 -6 6 -4 15 5 24 13 12 33 59 25 57 -2 0 -11 -9 -20 -20z"/>
<path d="M3260 1080 c0 -5 14 -10 31 -10 17 0 28 -4 24 -10 -3 -5 -2 -10 3
-10 6 0 13 7 16 16 4 9 13 14 21 10 8 -3 15 -1 15 4 0 6 -25 10 -55 10 -30 0
-55 -4 -55 -10z"/>
<path d="M3550 1068 c0 -14 7 -31 16 -39 13 -11 14 -9 8 17 -9 40 -24 54 -24
22z"/>
<path d="M3800 1079 c0 -5 5 -7 10 -4 6 3 10 8 10 11 0 2 -4 4 -10 4 -5 0 -10
-5 -10 -11z"/>
<path d="M2142 1045 c14 -32 26 -32 24 0 -1 16 -7 25 -18 25 -15 0 -16 -4 -6
-25z"/>
<path d="M3031 1043 c-12 -14 -19 -28 -16 -31 5 -5 44 38 45 51 0 13 -8 7 -29
-20z"/>
<path d="M3788 1055 c-9 -15 -2 -115 10 -127 13 -13 152 -12 166 2 7 7 5 10
-4 11 -8 0 -30 2 -47 5 -18 2 -33 0 -33 -5 0 -4 -11 -6 -25 -3 -28 5 -35 39
-10 48 8 4 15 15 15 26 0 10 -4 17 -9 13 -5 -3 -12 -1 -16 4 -3 6 -12 8 -19 5
-9 -3 -16 2 -18 13 -2 10 -6 14 -10 8z"/>
<path d="M546 1041 c-11 -4 -15 -10 -10 -13 5 -2 20 1 34 8 26 14 8 18 -24 5z"/>
<path d="M302 1024 c12 -13 20 -14 37 -5 19 11 21 9 21 -14 0 -30 11 -32 33
-7 30 33 21 42 -45 42 -57 0 -61 -1 -46 -16z"/>
<path d="M460 1020 c11 -11 22 -20 24 -20 2 0 6 9 9 20 4 17 0 20 -24 20 l-29
0 20 -20z"/>
<path d="M3680 1013 c0 -32 16 -53 39 -53 12 0 11 3 -2 18 -10 10 -17 26 -17
35 0 9 -4 19 -10 22 -6 4 -10 -6 -10 -22z"/>
<path d="M564 989 c-27 -29 -27 -29 -5 -29 12 0 35 13 51 29 l29 29 -24 0
c-13 0 -36 -13 -51 -29z"/>
<path d="M3478 1013 c7 -3 16 -2 19 1 4 3 -2 6 -13 5 -11 0 -14 -3 -6 -6z"/>
<path d="M2076 1002 c-3 -5 15 -9 40 -11 24 -1 44 2 44 7 0 11 -77 15 -84 4z"/>
<path d="M3305 1000 c-8 -13 5 -13 25 0 13 8 13 10 -2 10 -9 0 -20 -4 -23 -10z"/>
<path d="M440 980 c-6 -11 -8 -20 -6 -20 3 0 10 9 16 20 6 11 8 20 6 20 -3 0
-10 -9 -16 -20z"/>
<path d="M2991 991 c-7 -5 -12 -14 -10 -20 2 -6 10 -2 17 9 14 22 13 23 -7 11z"/>
<path d="M3545 992 c-18 -13 -15 -32 5 -32 11 0 20 6 20 14 0 18 -13 27 -25
18z"/>
<path d="M906 981 c-4 -7 -5 -15 -2 -18 9 -9 19 4 14 18 -4 11 -6 11 -12 0z"/>
<path d="M2813 964 c-17 -18 -16 -21 7 -27 15 -4 19 -1 17 14 -4 26 -10 29
-24 13z"/>
<path d="M725 962 c-12 -9 -18 -32 -7 -32 16 0 30 16 24 27 -4 7 -12 9 -17 5z"/>
<path d="M3312 949 c-10 -16 -16 -18 -27 -9 -8 6 -18 9 -24 6 -5 -3 -11 0 -14
6 -7 22 -19 1 -12 -22 5 -17 14 -20 46 -18 21 1 39 5 39 9 0 4 10 9 22 12 18
5 19 8 8 21 -17 21 -23 20 -38 -5z"/>
<path d="M220 951 c0 -15 16 -22 34 -15 25 9 19 24 -9 24 -14 0 -25 -4 -25 -9z"/>
<path d="M294 938 c1 -30 28 -52 39 -33 5 10 15 11 43 3 37 -10 50 -5 56 21 2
10 -11 14 -52 15 -30 1 -62 5 -71 9 -12 6 -15 2 -15 -15z"/>
<path d="M810 950 c0 -5 5 -10 11 -10 5 0 7 5 4 10 -3 6 -8 10 -11 10 -2 0 -4
-4 -4 -10z"/>
<path d="M1082 940 c-18 -3 -34 -9 -35 -14 -1 -5 -28 -11 -61 -13 -32 -2 -66
-8 -75 -13 -11 -7 18 -9 89 -6 96 3 150 16 150 37 0 11 -33 15 -68 9z"/>
<path d="M3400 935 c-14 -8 -33 -18 -42 -21 -10 -3 -18 -10 -18 -14 0 -4 -23
-15 -51 -24 -29 -10 -58 -24 -66 -32 -13 -13 -34 -19 -55 -15 -5 0 -8 -3 -8
-8 0 -8 -19 -18 -55 -27 -5 -2 -28 -9 -50 -15 -22 -7 -100 -13 -173 -14 -133
-2 -177 -13 -142 -35 8 -5 11 -10 6 -10 -6 0 -5 -5 1 -11 8 -8 19 -6 41 5 16
8 32 13 34 10 10 -9 98 -14 98 -5 0 4 34 8 75 9 52 0 83 5 100 16 13 9 35 16
48 16 13 0 42 12 63 26 69 48 122 74 148 74 14 0 29 6 33 13 9 13 44 32 80 42
12 3 20 12 17 18 -7 18 -55 19 -84 2z"/>
<path d="M460 925 c-15 -18 1 -20 18 -3 8 8 15 8 24 1 17 -14 161 -9 166 6 6
18 -192 15 -208 -4z"/>
<path d="M3655 930 c3 -5 13 -10 21 -10 8 0 14 5 14 10 0 6 -9 10 -21 10 -11
0 -17 -4 -14 -10z"/>
<path d="M2623 910 c-2 -21 5 -24 31 -14 19 7 9 34 -13 34 -10 0 -17 -9 -18
-20z"/>
<path d="M2520 896 c0 -12 -5 -27 -12 -34 -6 -6 -9 -15 -5 -18 3 -4 12 5 18
20 7 14 20 28 31 31 26 9 22 23 -7 23 -19 0 -25 -6 -25 -22z"/>
<path d="M720 901 c0 -5 -8 -12 -17 -14 -10 -3 -1 -5 20 -6 38 -1 50 12 21 23
-21 8 -24 8 -24 -3z"/>
<path d="M3718 893 c-27 -7 -21 -39 11 -62 16 -12 34 -21 40 -21 6 0 11 -5 11
-11 0 -6 6 -16 13 -23 6 -7 21 -24 31 -39 11 -14 23 -24 28 -21 4 3 8 -2 8
-12 0 -16 95 -114 111 -114 5 0 6 -6 3 -14 -4 -11 0 -13 15 -9 28 7 26 25 -4
61 -14 17 -25 33 -25 37 0 5 -36 44 -79 87 -44 44 -85 92 -91 109 -7 16 -16
29 -20 29 -5 0 -14 2 -22 4 -7 2 -21 2 -30 -1z"/>
<path d="M648 883 c7 -3 16 -2 19 1 4 3 -2 6 -13 5 -11 0 -14 -3 -6 -6z"/>
<path d="M1173 870 c-13 -20 -5 -34 14 -22 5 4 7 15 4 24 -6 17 -7 16 -18 -2z"/>
<path d="M3140 880 c0 -5 11 -10 25 -10 14 0 25 5 25 10 0 6 -11 10 -25 10
-14 0 -25 -4 -25 -10z"/>
<path d="M3875 880 c-11 -4 -26 -5 -32 -3 -7 3 -13 0 -13 -6 0 -6 17 -11 40
-11 22 0 40 4 40 9 0 15 -13 19 -35 11z"/>
<path d="M3950 875 c0 -12 13 -15 61 -15 44 0 60 3 57 13 -3 7 -27 13 -61 15
-45 2 -57 -1 -57 -13z"/>
<path d="M940 850 c0 -5 37 -9 90 -8 50 2 90 6 90 10 0 4 -40 8 -90 8 -52 0
-90 -4 -90 -10z"/>
<path d="M2885 852 c-16 -2 -35 -8 -42 -14 -6 -5 -20 -9 -30 -8 -31 4 -44 0
-38 -10 7 -12 187 -11 206 1 10 6 6 9 -15 9 -16 0 -34 6 -40 13 -6 7 -24 11
-41 9z"/>
<path d="M3037 854 c-13 -13 5 -24 39 -24 24 0 34 5 34 15 0 10 -10 15 -33 15
-19 0 -37 -3 -40 -6z"/>
<path d="M396 841 c-34 -7 -45 -27 -19 -34 15 -4 14 -5 -3 -6 -19 -1 -21 -5
-15 -33 6 -28 12 -33 39 -36 17 -2 42 4 53 12 20 13 25 13 51 0 43 -22 25 -34
-51 -32 -67 1 -96 -6 -86 -22 3 -4 14 -6 25 -3 11 3 20 0 20 -6 0 -6 -6 -11
-12 -11 -9 0 -8 -3 2 -10 8 -5 15 -15 15 -22 0 -8 17 -13 45 -15 56 -3 93 5
85 17 -9 15 49 12 63 -2 10 -10 15 -10 20 -1 4 6 29 18 57 26 44 12 47 15 26
22 -34 10 -8 25 47 25 23 0 42 5 42 10 0 6 -11 10 -25 10 -18 0 -25 5 -25 20
0 11 7 21 15 21 31 3 35 4 35 14 0 10 -44 12 -70 2 -33 -13 -90 -13 -90 -1 0
19 14 24 74 26 31 1 56 6 56 10 0 8 -6 9 -190 13 -63 2 -124 5 -135 7 -11 3
-33 2 -49 -1z m116 -43 c-6 -6 -19 -7 -29 -3 -17 7 -17 8 2 15 24 9 41 2 27
-12z m106 -20 c-2 -5 -8 -9 -13 -9 -5 0 -11 4 -13 9 -1 5 4 9 13 9 9 0 14 -4
13 -9z m-63 -8 c3 -5 1 -10 -4 -10 -6 0 -11 5 -11 10 0 6 2 10 4 10 3 0 8 -4
11 -10z m160 -40 c-3 -5 -15 -10 -26 -10 -11 0 -17 5 -14 10 3 6 15 10 26 10
11 0 17 -4 14 -10z m-234 -54 c-7 -8 -21 -12 -32 -9 -16 5 -18 8 -7 14 7 5 21
9 32 9 15 0 16 -3 7 -14z"/>
<path d="M2613 834 c-17 -17 -16 -24 1 -24 19 0 27 13 18 27 -5 7 -11 7 -19
-3z"/>
<path d="M252 832 c-18 -12 -26 -71 -18 -145 6 -53 11 -66 27 -70 12 -3 24 2
34 16 19 28 19 35 -2 40 -14 4 -14 5 3 6 34 2 46 23 28 50 -9 12 -22 20 -29
17 -18 -6 -27 21 -15 43 12 23 -9 55 -28 43z"/>
<path d="M2260 819 c0 -5 0 -12 0 -16 0 -4 27 -8 59 -8 33 0 63 -3 67 -7 4 -5
16 -8 28 -8 15 0 17 3 8 12 -6 6 -20 13 -29 14 -25 4 -105 17 -120 20 -7 1
-13 -2 -13 -7z"/>
<path d="M3445 820 c-3 -5 1 -10 9 -10 9 0 16 5 16 10 0 6 -4 10 -9 10 -6 0
-13 -4 -16 -10z"/>
<path d="M2520 789 c0 -5 8 -9 18 -9 9 0 28 -3 42 -7 14 -3 22 -3 18 1 -11 12
-78 25 -78 15z"/>
<path d="M3470 770 c0 -5 7 -10 16 -10 9 0 14 -6 11 -13 -4 -10 3 -14 21 -13
15 1 26 4 24 8 -1 4 -5 15 -8 23 -7 17 -64 21 -64 5z"/>
<path d="M4040 765 c0 -8 0 -18 -1 -22 0 -4 4 -9 10 -11 6 -2 11 8 11 22 0 14
-4 26 -10 26 -5 0 -10 -7 -10 -15z"/>
<path d="M2660 748 c0 -21 14 -36 35 -40 19 -3 21 3 16 42 -2 15 -51 12 -51
-2z"/>
<path d="M3567 731 c-6 -24 -77 -34 -121 -16 -20 9 -37 10 -47 4 -11 -7 -11
-9 4 -9 36 0 10 -26 -45 -43 -22 -8 -47 21 -29 32 20 13 -34 23 -77 15 -20 -4
-44 -13 -53 -21 -9 -7 -20 -13 -25 -11 -17 5 -75 -22 -70 -31 4 -6 31 -7 64
-4 82 8 264 4 277 -7 11 -9 49 -7 78 5 12 5 22 2 31 -10 12 -17 13 -17 18 3 5
17 13 20 46 18 22 -2 47 -9 55 -17 9 -10 28 -13 58 -11 39 4 41 6 24 18 -10 8
-25 14 -32 14 -7 0 -13 11 -13 26 0 21 -3 24 -22 19 -26 -9 -94 -9 -108 0 -8
5 -8 11 0 20 7 8 7 16 2 19 -6 3 -12 -3 -15 -13z m-302 -41 c3 -5 -1 -10 -10
-10 -9 0 -13 5 -10 10 3 6 8 10 10 10 2 0 7 -4 10 -10z"/>
<path d="M2406 695 c-14 -22 -15 -25 -1 -25 8 0 15 9 15 19 0 11 6 22 13 24 7
4 8 6 1 6 -7 1 -19 -10 -28 -24z"/>
<path d="M888 703 c7 -3 16 -2 19 1 4 3 -2 6 -13 5 -11 0 -14 -3 -6 -6z"/>
<path d="M4040 699 c0 -5 5 -7 10 -4 6 3 10 8 10 11 0 2 -4 4 -10 4 -5 0 -10
-5 -10 -11z"/>
<path d="M1080 690 c0 -5 -11 -10 -25 -10 -14 0 -25 -5 -25 -11 0 -6 -9 -8
-22 -3 -13 4 -56 8 -96 9 -62 2 -72 0 -70 -14 1 -9 -1 -21 -4 -27 -7 -10 79
-10 253 0 41 3 84 5 97 5 12 1 22 5 22 10 0 5 -18 7 -40 4 -33 -5 -40 -3 -40
11 0 10 5 14 10 11 6 -3 10 -2 10 3 0 5 -10 12 -22 16 -33 8 -48 7 -48 -4z"/>
<path d="M1388 683 c7 -3 16 -2 19 1 4 3 -2 6 -13 5 -11 0 -14 -3 -6 -6z"/>
<path d="M2608 673 c-10 -2 -18 -9 -18 -15 0 -7 -5 -7 -14 1 -14 12 -46 5 -46
-10 0 -10 2 -10 75 -13 69 -3 80 2 51 25 -13 10 -26 18 -28 18 -1 -1 -11 -3
-20 -6z"/>
<path d="M1225 650 c-7 -11 31 -20 90 -20 28 0 56 -4 62 -8 7 -4 29 -6 49 -4
29 4 33 7 20 14 -9 5 -21 6 -26 3 -5 -3 -27 -2 -47 4 -56 14 -142 21 -148 11z"/>
<path d="M2695 650 c-4 -6 5 -10 20 -10 15 0 24 4 20 10 -3 6 -12 10 -20 10
-8 0 -17 -4 -20 -10z"/>
<path d="M2775 650 c4 -6 11 -8 16 -5 14 9 11 15 -7 15 -8 0 -12 -5 -9 -10z"/>
<path d="M2963 652 c-60 -6 -34 -22 32 -20 38 2 65 7 65 13 0 11 -35 13 -97 7z"/>
<path d="M2340 627 c0 -17 42 -15 48 1 2 7 -7 12 -22 12 -15 0 -26 -6 -26 -13z"/>
</g>
</svg>
