<?xml version="1.0" encoding="UTF-8"?>
<svg xmlns="http://www.w3.org/2000/svg" version="1.1" viewBox="0 0 847.5 850">
<path d="m753.08 846.75c-62.625-9.9142-21.35-93.989-81.275-96.225-98.65-11.585-180.28-97.098-199-191.62-1.1375-52.191-61.695-42.696-96.491-34.271-23.305 38.525-30.492 77.764-60 113.38-37.538 54.212-94.988 103.43-159.11 120.5-47.124 3.375-34.274 93.62-94.468 90.26-46.352-1.065-87.602-75.042-46.168-106.26 28.348-27.745 68.975-15.125 78.745-69.169 30.532-85.311 99.571-163.12 185.35-187.15 49.204-13.78 72.868-59.795 56.066-88.918-120.16-10.261-221.14-90.841-291.64-183.82-33.469-39.491-51.456-91.254-0.69925-125.52 31.528-33.334 65.448-66.661 106.66-87.312 100.12 63.029 185.78 155.26 222.35 269.56 10.311 36.838 21.685 109.92 74.049 70.512 14.886-46.582 19.709-91.881 44.496-135.24 49.086-86.512 121.12-165.05 214.08-204.35 53.968 25.956 97.506 71.464 131.22 120.17 35.985 43.338-34.094 80.712-56.102 114.84-65.314 67.795-138.14 122.37-225.89 156.08-38.515 2.4488-52.631 18.436-36.396 54.804 0.21 48.959 67.088 20.511 95.261 50.696 51.54 36.422 100.6 82.242 127.38 139.61 11 36.486 3.465 97.555 57.4 87.16 65.425 18.665 45.412 128.62-20.225 125.64l-25.606-3.3535zm44.83-27.564c29.334-20.841 21.002-62.859-11.83-68.318-66.855 8.2875-54.654-67.571-78.671-108.09-29.582-49.924-66.888-92.776-115.94-124.15-35.531-25.875-83.906 5.3262-97.848-50.986-12.11 31.506-40.239 39.736-19.435 37.971 39.822 18.654 18.302 80.73 51.532 112.82 37.006 62.785 102.25 106.81 176.18 108.01 54.251 9.9854 12.506 99.005 80.271 95.052l15.741-2.309zm-640.52-86.669c84.375-46.278 157.32-112.26 185.95-203.7 12.691-60.27 93.605-15.478 124.18-58.205 25.52-34.575 12.446-108.75 73.509-104.67 63.682-17.734 101.34-58.919 154.05-97.725 47.242-39.99 77.186-59.528 110.16-112.28-56.521-37.575-75.946-44.152-110.51-103-100.99 50.426-155.9 112.63-193.98 219.74-18.394 38.009-18.474 120.64-81.941 112.09-76.544-0.7025-31.086 56.362-85.412 108.02-95.888 41.238-141.65 66.688-188.29 135.68-27.374 40.488-26.915 113.33-89.508 118.82-53.878 30.374-24.591 72.405 12.035 70.29l11.608-8.6568c42.859-28.845 4.8995-77.864 78.122-76.398zm200.95-404.01c-18.796-90.851-48.586-138.59-114.27-204.35-33.339-28.518-46.335-60.205-86.368-76.989-35.785 53.238-51.985 71.6-108.44 103.41 34.74 87.488 83.529 127.54 162.6 175.64 44.772 27.238 71.348 36.126 123.26 40.319 22.614-14.13 26.832-23.266 23.194-38.035" stroke-width=".125"/>
</svg>
