<svg xmlns="http://www.w3.org/2000/svg" version="1.1" viewBox="0 0 847.5 850">
<g transform="matrix(1.25,0,0,-1.25,0,850)">
<g transform="scale(0.1,0.1)">
<path fill-rule="nonzero" fill="currentColor" d="M6024.6,26.016c-501,79.314-170.8,751.91-650.2,769.8-789.2,92.68-1442.2,776.78-1592,1533-9.1,417.53-493.56,341.57-771.93,274.17-186.44-308.2-243.94-622.11-480-907.08-300.3-433.7-759.9-827.46-1272.9-964-376.99-27-274.19-748.96-755.74-722.08-370.82,8.5197-700.82,600.34-369.34,850.1,226.78,221.96,551.8,121,629.96,553.35,244.26,682.49,796.57,1305,1482.8,1497.2,393.63,110.24,582.94,478.36,448.53,711.34-961.3,82.09-1769.1,726.73-2333.1,1470.6-267.75,315.93-411.65,730.03-5.594,1004.2,252.22,266.67,523.58,533.29,853.32,698.5,800.92-504.23,1486.2-1242.1,1778.8-2156.5,82.49-294.7,173.48-879.36,592.39-564.1,119.09,372.66,157.67,735.05,355.97,1081.9,392.69,692.1,968.93,1320.4,1712.6,1634.8,431.74-207.65,780.05-571.71,1049.8-961.37,287.88-346.7-272.75-645.7-448.82-918.72-522.51-542.36-1105.1-978.95-1807.1-1248.6-308.12-19.59-421.05-147.49-291.17-438.43,1.68-391.67,536.7-164.09,762.09-405.57,412.32-291.38,804.82-657.94,1019-1116.9,88-291.89,27.72-780.44,459.2-697.28,523.4-149.32,363.3-1029-161.8-1005.1l-204.85,26.828zm358.64,220.51c234.67,166.73,168.02,502.87-94.64,546.54-534.84-66.3-437.23,540.57-629.37,864.7-236.66,399.39-535.1,742.21-927.5,993.21-284.25,207-671.25-42.61-782.78,407.89-96.88-252.05-321.91-317.89-155.48-303.77,318.58-149.23,146.42-645.84,412.26-902.56,296.05-502.28,818.02-854.46,1409.4-864.06,434.01-79.883,100.05-792.04,642.17-760.42l125.93,18.472zm-5124.2,693.35c675,370.22,1258.6,898.12,1487.6,1629.6,101.53,482.16,748.84,123.82,993.47,465.64,204.16,276.6,99.57,869.99,588.07,837.35,509.46,141.87,810.69,471.35,1232.4,781.8,377.94,319.92,617.49,476.22,881.27,898.24-452.17,300.6-607.57,353.22-884.1,824.01-807.9-403.41-1247.2-901.07-1551.8-1757.9-147.15-304.07-147.79-965.13-655.53-896.73-612.35,5.62-248.69-450.9-683.3-864.13-767.1-329.9-1133.2-533.5-1506.3-1085.4-218.99-323.9-215.32-906.67-716.06-950.54-431.02-242.99-196.73-579.24,96.28-562.32l92.863,69.254c342.87,230.76,39.196,622.91,624.98,611.18zm1607.6,3232.1c-150.37,726.81-388.69,1108.7-914.13,1634.8-266.71,228.14-370.68,481.64-690.94,615.91-286.28-425.9-415.88-572.8-867.53-827.3,277.92-699.9,668.23-1020.3,1300.8-1405.1,358.18-217.9,570.78-289.01,986.1-322.55,180.91,113.04,214.66,186.13,185.55,304.28"/>
</g></g></svg>
